<?xml version="1.0" encoding="UTF-8"?>
<!DOCTYPE svg PUBLIC "-//W3C//DTD SVG 1.1//EN" "http://www.w3.org/Graphics/SVG/1.1/DTD/svg11.dtd">
<!-- Creator: CorelDRAW -->
<svg xmlns="http://www.w3.org/2000/svg" xml:space="preserve" width="33.8828mm" height="44.1789mm" version="1.1" style="shape-rendering:geometricPrecision; text-rendering:geometricPrecision; image-rendering:optimizeQuality; fill-rule:evenodd; clip-rule:evenodd"
viewBox="0 0 41.9 54.63"
 xmlns:xlink="http://www.w3.org/1999/xlink"
 xmlns:xodm="http://www.corel.com/coreldraw/odm/2003">
 <defs>
  <style type="text/css">
   <![CDATA[
    .str1 {stroke:#FEFEFE;stroke-width:0.25;stroke-miterlimit:22.9256}
    .str0 {stroke:#FFC107;stroke-width:0.25;stroke-miterlimit:22.9256}
    .fil1 {fill:#FEFEFE}
    .fil2 {fill:black}
    .fil7 {fill:#73323D}
    .fil6 {fill:#C6EA94}
    .fil3 {fill:#D9A23B}
    .fil4 {fill:#F66C81}
    .fil5 {fill:#FDCD56}
    .fil0 {fill:#FFC107}
   ]]>
  </style>
 </defs>
 <g id="Camada_x0020_1">
  <metadata id="CorelCorpID_0Corel-Layer"/>
  <path class="fil0 str0" d="M0.12 20.2l0 1.59c0,4.59 1.98,8.77 4.43,12.03l15.17 20.31c0.17,0.23 0.26,0.33 0.43,0.37l1.53 0c0.32,0 0.48,-0.39 0.79,-0.8 0.27,-0.36 0.46,-0.61 0.73,-0.97l12.73 -17.01c2.17,-2.89 3.6,-4.69 4.83,-8.34 1.22,-3.64 1.32,-7.82 0.38,-11.56 -0.45,-1.78 -0.68,-2.13 -1.31,-3.68 -0.46,-1.13 -1.17,-2.16 -1.83,-3.16 -1.18,-1.78 -3.26,-3.87 -5.03,-5.06 -4.13,-2.76 -7.3,-3.8 -12.77,-3.8 -1.56,0 -3.15,0.31 -4.38,0.62 -5.95,1.49 -11.16,5.74 -13.75,11.32 -0.95,2.06 -1.95,5.2 -1.95,8.14z"/>
  <circle class="fil1 str1" cx="20.95" cy="20.72" r="14.5"/>
  <g id="_1666459995776">
   <path class="fil2" d="M23.57 19.78l0.01 -0.19 2.47 0 0.03 0.19 -0 10.27 -2.5 0 -0 -10.27zm-5.77 2.41l2.47 -0 0.03 0.18 -0.01 7.68 -2.5 -0 0 -7.85zm3.2 0.5c-0.02,-0.44 0.05,-0.75 -0.09,-1.14 0.33,-0.13 0.83,-0.56 1.07,-0.77 0.39,-0.35 0.72,-0.88 0.88,-1.02 0,0.4 -0,0.81 0,1.21 0.01,0.56 -0.11,0.48 -0.43,0.76 -0.32,0.28 -0.99,0.8 -1.43,0.96zm2.86 -5.65l0.55 0 0 1.84 -1.05 0.01c0.21,-0.67 0.42,-1.06 0.51,-1.85zm3.69 -7.38c0.2,0.12 0.17,0.19 0.37,0.39 0.72,0.74 1.67,1.93 2.4,2.73 0.08,0.09 0.12,0.11 0.19,0.2 0.25,0.3 0.46,0.52 0.72,0.82l2.19 2.53 -2.94 0c-0.4,0.01 -0.48,0.11 -0.48,0.51l0 9.53c-0.73,0 -2.63,0.03 -3.24,-0.01 0,-2.11 0.05,-4.91 0,-6.98 -0.02,-0.64 -0.38,-0.48 -1.66,-0.48l-0 -2.05c-0,-0.66 -0.32,-0.5 -1.44,-0.5 -0.64,0 -1.35,0.03 -1.98,-0.01l4.2 -4.79c0.08,-0.08 0.11,-0.14 0.18,-0.22l1.49 -1.66zm-4.4 7.38c-0.27,2.04 -1.81,3.85 -3.6,4.41 -0.32,0.1 -1.48,0.04 -1.96,0.05 -0.28,0 -0.35,0.1 -0.49,0.21 -1.04,-0.11 -1.97,-0.57 -2.61,-1.05 -3.07,-2.33 -2.97,-7.29 0.97,-9.27 2.62,-1.32 6.18,0.01 7.25,2.68 -0.26,0.5 -2.17,2.28 -2.16,2.64 0.01,0.34 0.31,0.35 0.63,0.34 0.66,-0 1.32,-0 1.97,-0zm-6.06 5.37l-0 1.04c-5.37,-0.52 -8.31,-6.51 -5.31,-11.12 2.02,-3.11 6.52,-4.28 9.85,-2.07 0.88,0.58 1.81,1.45 2.3,2.4 -0.12,0.14 -0.58,0.73 -0.74,0.81 -0.27,-0.75 -1.2,-1.71 -1.85,-2.17 -2.76,-1.96 -6.5,-1.37 -8.57,1.42 -1.25,1.67 -1.56,4.26 -0.5,6.36 0.81,1.59 2.46,3.09 4.82,3.33zm-7.22 -6.46c0,1.99 0.33,3.27 1.38,4.84 0.8,1.2 1.97,2.09 3.26,2.71 0.69,0.33 1.83,0.66 2.57,0.66l0 6.22c0,0.34 0.26,0.4 0.6,0.4 3.74,0 3.34,0.29 3.34,-1.39l0 -5.92c0.25,-0.06 0.74,-0.35 0.96,-0.49 0.16,-0.1 0.76,-0.57 0.89,-0.61l0 8.21c0.17,0.12 0.19,0.2 0.6,0.2l2.79 0c0.37,0 0.55,-0.17 0.55,-0.55l0 -3.14 3.49 0c0.31,0 0.45,-0.24 0.45,-0.55l0 -9.51 3.53 0c0.18,0 0.49,-0.3 0.16,-0.66l-1.54 -1.74c-0.63,-0.74 -1.66,-1.84 -2.16,-2.47l-1.97 -2.26c-1.48,-1.53 -0.91,-1.6 -2.22,-0.2l-0.56 0.63c-0.14,0.18 -0.24,0.26 -0.37,0.43 -0.19,0.25 -1.04,1.09 -1.1,1.29 -0.17,-0.05 -0.61,-0.71 -0.73,-0.86 -0.26,-0.31 -0.5,-0.59 -0.8,-0.84 -1,-0.8 -1.85,-1.34 -3.14,-1.69 -2.46,-0.65 -4.9,-0.15 -6.92,1.39 -1.09,0.83 -1.9,1.95 -2.45,3.22 -0.28,0.65 -0.58,1.75 -0.58,2.65z"/>
   <path class="fil3" d="M18.12 19.58c0,0.35 0.08,0.8 -0.33,0.82 -0.44,0.02 -0.34,-0.47 -0.38,-0.84 -0.34,-0.12 -1.12,-0.39 -1.31,-0.78 -0.14,-0.29 0.15,-0.83 0.7,-0.3 1.18,1.13 2.97,-0.36 1.91,-1.42 -0.72,-0.72 -2.01,0.04 -2.76,-1.47 -0.6,-1.2 0.43,-2.33 1.45,-2.47 -0.01,-0.37 -0.11,-0.92 0.34,-0.92 0.43,-0 0.36,0.53 0.36,0.9 0.57,0.26 1,0.29 1.34,0.74 0.21,0.28 0.09,0.61 -0.26,0.6 -0.3,-0.01 -0.16,-0.17 -0.66,-0.44 -1.41,-0.75 -2.61,0.63 -1.76,1.57 0.62,0.68 2.13,0.04 2.8,1.48 0.49,1.05 -0.13,2.07 -1.22,2.42 -0.06,0.02 -0.06,0.02 -0.11,0.04 -0.1,0.04 -0.05,0.02 -0.11,0.06zm5.03 -2.55c-0.66,0 -1.32,-0 -1.97,0 -0.32,0 -0.62,-0.01 -0.63,-0.34 -0.01,-0.36 1.91,-2.14 2.16,-2.64 -1.08,-2.68 -4.63,-4 -7.25,-2.68 -3.94,1.98 -4.04,6.95 -0.97,9.27 0.64,0.48 1.56,0.95 2.61,1.05 0.14,-0.11 0.21,-0.21 0.49,-0.21 0.48,-0.01 1.65,0.05 1.96,-0.05 1.78,-0.55 3.33,-2.37 3.6,-4.41z"/>
   <path class="fil4" d="M26.06 11.32c-0.07,0.08 -0.1,0.14 -0.18,0.22l-4.2 4.79c0.63,0.04 1.34,0.01 1.98,0.01 1.12,0 1.44,-0.15 1.44,0.5l0 2.05c1.28,0 1.64,-0.16 1.66,0.48 0.05,2.07 -0,4.88 -0,6.98 0.61,0.04 2.5,0.01 3.24,0.01l0 -9.53c0,-0.4 0.08,-0.5 0.48,-0.51l2.94 -0 -2.19 -2.53c-0.26,-0.3 -0.47,-0.53 -0.72,-0.82 -0.07,-0.09 -0.12,-0.11 -0.19,-0.2 -0.73,-0.8 -1.68,-1.99 -2.4,-2.73 -0.2,-0.2 -0.17,-0.28 -0.37,-0.39l-1.49 1.66z"/>
   <path class="fil5" d="M17.09 22.41c-2.36,-0.24 -4.01,-1.75 -4.82,-3.33 -1.07,-2.09 -0.75,-4.68 0.5,-6.36 2.08,-2.79 5.81,-3.37 8.57,-1.42 0.65,0.46 1.58,1.42 1.85,2.17 0.16,-0.09 0.62,-0.67 0.74,-0.81 -0.49,-0.95 -1.42,-1.82 -2.3,-2.4 -3.34,-2.21 -7.83,-1.04 -9.85,2.07 -3,4.61 -0.07,10.6 5.31,11.12l0 -1.04z"/>
   <polygon class="fil6" points="23.57,30.04 26.07,30.04 26.07,19.78 26.04,19.59 23.58,19.59 23.57,19.78 "/>
   <polygon class="fil5" points="17.8,30.04 20.3,30.04 20.3,22.37 20.27,22.19 17.8,22.19 "/>
   <path class="fil4" d="M14.5 30.04l0.02 -5.25c-0.56,0.03 -2.08,-0.07 -2.49,0.04l0 5.19 2.47 0.01z"/>
   <path class="fil2" d="M12.03 24.84c0.06,-0.08 0.01,-0.09 0.29,-0.09l2.09 0.01c0.14,0.02 0.11,0.04 0.11,0.04 0.12,0.33 0.03,2.13 0.03,2.65 0,0.21 0.06,2.41 -0.05,2.6l-2.47 -0.01 -0 -5.19zm-0.71 -0.38l0 5.92c0,0.3 0.25,0.4 0.55,0.4l2.84 0c0.31,0 0.55,-0.14 0.55,-0.45l0 -5.78c0,-0.3 -0.1,-0.5 -0.4,-0.5l-3.14 0c-0.24,0 -0.4,0.16 -0.4,0.4z"/>
   <path class="fil2" d="M18.12 19.58c0.05,-0.04 0,-0.01 0.11,-0.06 0.05,-0.02 0.06,-0.02 0.11,-0.04 1.09,-0.35 1.71,-1.37 1.22,-2.42 -0.67,-1.44 -2.18,-0.8 -2.8,-1.48 -0.85,-0.93 0.36,-2.31 1.76,-1.57 0.49,0.26 0.36,0.42 0.66,0.44 0.34,0.01 0.47,-0.32 0.26,-0.6 -0.34,-0.45 -0.76,-0.48 -1.34,-0.74 -0.01,-0.37 0.07,-0.9 -0.36,-0.9 -0.45,0 -0.34,0.55 -0.34,0.92 -1.02,0.14 -2.05,1.27 -1.45,2.47 0.76,1.51 2.04,0.75 2.76,1.47 1.06,1.05 -0.73,2.55 -1.91,1.42 -0.55,-0.53 -0.84,0.01 -0.7,0.3 0.19,0.39 0.97,0.67 1.31,0.78 0.03,0.37 -0.06,0.85 0.38,0.84 0.41,-0.02 0.33,-0.46 0.33,-0.82z"/>
   <path class="fil5" d="M21 22.69c0.45,-0.15 1.12,-0.67 1.43,-0.96 0.32,-0.28 0.43,-0.2 0.43,-0.76 -0,-0.4 -0,-0.81 -0,-1.21 -0.16,0.14 -0.49,0.67 -0.88,1.02 -0.24,0.21 -0.74,0.64 -1.07,0.77 0.14,0.39 0.08,0.7 0.09,1.14z"/>
   <path class="fil5" d="M23.86 17.04c-0.09,0.79 -0.29,1.19 -0.51,1.85l1.05 -0.01 0 -1.84 -0.55 -0z"/>
   <path class="fil7" d="M14.52 24.79l-0.02 5.25c0.11,-0.19 0.05,-2.39 0.05,-2.6 0,-0.53 0.09,-2.32 -0.03,-2.65 -0.01,-0 0.03,-0.02 -0.11,-0.04l-2.09 -0.01c-0.28,0 -0.23,0.01 -0.29,0.09 0.41,-0.11 1.93,-0.01 2.49,-0.04z"/>
  </g>
 </g>
</svg>
