<?xml version="1.0" encoding="UTF-8"?>
<!DOCTYPE svg PUBLIC "-//W3C//DTD SVG 1.1//EN" "http://www.w3.org/Graphics/SVG/1.1/DTD/svg11.dtd">
<!-- Creator: CorelDRAW -->
<svg xmlns="http://www.w3.org/2000/svg" xml:space="preserve" width="33.683mm" height="43.9789mm" version="1.1" style="shape-rendering:geometricPrecision; text-rendering:geometricPrecision; image-rendering:optimizeQuality; fill-rule:evenodd; clip-rule:evenodd"
viewBox="0 0 41.41 54.06"
 xmlns:xlink="http://www.w3.org/1999/xlink"
 xmlns:xodm="http://www.corel.com/coreldraw/odm/2003">
 <defs>
  <style type="text/css">
   <![CDATA[
    .str0 {stroke:#FEFEFE;stroke-width:0.25;stroke-miterlimit:22.9256}
    .fil1 {fill:#FEFEFE}
    .fil2 {fill:black}
    .fil0 {fill:#28A745}
    .fil7 {fill:#73323D}
    .fil6 {fill:#C6EA94}
    .fil3 {fill:#D9A23B}
    .fil4 {fill:#F66C81}
    .fil5 {fill:#FDCD56}
   ]]>
  </style>
 </defs>
 <g id="Camada_x0020_1">
  <metadata id="CorelCorpID_0Corel-Layer"/>
  <path class="fil0" d="M-0 19.96l0 1.58c0,4.57 1.97,8.72 4.4,11.96l15.08 20.19c0.17,0.23 0.26,0.33 0.43,0.37l1.52 0c0.32,0 0.48,-0.39 0.78,-0.8 0.27,-0.36 0.46,-0.61 0.72,-0.97l12.66 -16.91c2.16,-2.88 3.58,-4.66 4.8,-8.29 1.22,-3.62 1.31,-7.77 0.38,-11.49 -0.44,-1.77 -0.68,-2.11 -1.3,-3.66 -0.45,-1.12 -1.16,-2.14 -1.82,-3.14 -1.17,-1.77 -3.25,-3.85 -5,-5.03 -4.11,-2.75 -7.26,-3.78 -12.69,-3.78 -1.55,0 -3.13,0.31 -4.35,0.61 -5.92,1.48 -11.1,5.7 -13.67,11.25 -0.95,2.04 -1.94,5.17 -1.94,8.1z"/>
  <circle class="fil1 str0" cx="20.7" cy="20.47" r="14.41"/>
  <g id="_1666454911264">
   <path class="fil2" d="M23.3 19.54l0.01 -0.19 2.45 0 0.02 0.18 -0 10.21 -2.48 0 -0 -10.2zm-5.73 2.4l2.46 -0 0.03 0.18 -0.01 7.63 -2.48 -0 0 -7.81zm3.19 0.5c-0.02,-0.43 0.05,-0.74 -0.09,-1.13 0.33,-0.13 0.83,-0.55 1.07,-0.77 0.39,-0.35 0.72,-0.88 0.88,-1.01 0,0.4 -0,0.8 0,1.21 0.01,0.56 -0.11,0.47 -0.43,0.76 -0.32,0.28 -0.98,0.8 -1.43,0.95zm2.84 -5.62l0.54 0 0 1.83 -1.05 0.01c0.21,-0.66 0.42,-1.05 0.51,-1.84zm3.67 -7.34c0.19,0.12 0.17,0.19 0.37,0.39 0.72,0.73 1.66,1.92 2.39,2.71 0.08,0.09 0.12,0.11 0.19,0.2 0.24,0.29 0.46,0.52 0.72,0.82l2.18 2.51 -2.92 0c-0.4,0.01 -0.48,0.11 -0.48,0.5l0 9.48c-0.73,0 -2.61,0.03 -3.22,-0.01 0,-2.09 0.05,-4.89 0,-6.94 -0.02,-0.64 -0.38,-0.48 -1.65,-0.48l-0 -2.04c-0,-0.65 -0.32,-0.5 -1.43,-0.5 -0.63,0 -1.34,0.03 -1.97,-0.01l4.17 -4.76c0.07,-0.08 0.11,-0.14 0.18,-0.22l1.48 -1.65zm-4.37 7.33c-0.27,2.03 -1.8,3.83 -3.58,4.38 -0.32,0.1 -1.47,0.04 -1.95,0.05 -0.28,0 -0.35,0.1 -0.49,0.21 -1.04,-0.11 -1.96,-0.57 -2.59,-1.05 -3.05,-2.31 -2.96,-7.25 0.96,-9.22 2.61,-1.31 6.14,0.01 7.21,2.67 -0.25,0.5 -2.16,2.26 -2.15,2.62 0.01,0.34 0.31,0.34 0.62,0.34 0.65,-0 1.31,-0 1.96,-0zm-6.02 5.34l-0 1.04c-5.34,-0.52 -8.26,-6.47 -5.28,-11.06 2.01,-3.09 6.48,-4.26 9.79,-2.06 0.87,0.58 1.8,1.44 2.29,2.39 -0.12,0.14 -0.58,0.72 -0.74,0.81 -0.27,-0.75 -1.19,-1.7 -1.84,-2.16 -2.74,-1.94 -6.46,-1.36 -8.52,1.41 -1.24,1.66 -1.55,4.24 -0.49,6.32 0.8,1.58 2.45,3.07 4.79,3.31zm-7.17 -6.42c0,1.98 0.33,3.25 1.38,4.81 0.8,1.2 1.96,2.08 3.24,2.7 0.68,0.33 1.82,0.66 2.56,0.66l0 6.19c0,0.34 0.26,0.4 0.59,0.4 3.72,0 3.32,0.29 3.32,-1.39l0 -5.89c0.25,-0.06 0.74,-0.35 0.95,-0.49 0.16,-0.1 0.75,-0.57 0.88,-0.6l0 8.17c0.17,0.12 0.19,0.2 0.59,0.2l2.77 0c0.37,0 0.54,-0.17 0.54,-0.54l0 -3.12 3.46 0c0.3,0 0.45,-0.24 0.45,-0.54l0 -9.45 3.51 0c0.18,0 0.48,-0.3 0.16,-0.66l-1.53 -1.73c-0.62,-0.74 -1.65,-1.83 -2.15,-2.45l-1.96 -2.25c-1.48,-1.52 -0.9,-1.59 -2.2,-0.2l-0.56 0.63c-0.14,0.18 -0.24,0.26 -0.37,0.42 -0.19,0.25 -1.03,1.08 -1.09,1.29 -0.17,-0.04 -0.6,-0.71 -0.73,-0.86 -0.26,-0.31 -0.49,-0.59 -0.8,-0.83 -1,-0.8 -1.84,-1.34 -3.12,-1.68 -2.45,-0.64 -4.88,-0.15 -6.88,1.39 -1.08,0.83 -1.89,1.93 -2.44,3.2 -0.28,0.65 -0.58,1.74 -0.58,2.64z"/>
   <path class="fil3" d="M17.89 19.34c0,0.35 0.08,0.8 -0.33,0.81 -0.44,0.02 -0.34,-0.46 -0.38,-0.83 -0.34,-0.12 -1.12,-0.39 -1.3,-0.78 -0.14,-0.29 0.15,-0.83 0.7,-0.3 1.18,1.13 2.95,-0.36 1.9,-1.41 -0.72,-0.72 -1.99,0.04 -2.75,-1.46 -0.6,-1.19 0.43,-2.31 1.44,-2.45 -0.01,-0.37 -0.11,-0.91 0.33,-0.91 0.43,-0 0.35,0.53 0.36,0.9 0.57,0.25 0.99,0.29 1.33,0.73 0.21,0.28 0.08,0.61 -0.25,0.6 -0.3,-0.01 -0.16,-0.17 -0.65,-0.43 -1.4,-0.74 -2.6,0.63 -1.75,1.56 0.61,0.67 2.12,0.04 2.78,1.47 0.48,1.04 -0.13,2.06 -1.21,2.41 -0.06,0.02 -0.06,0.02 -0.11,0.04 -0.1,0.04 -0.05,0.02 -0.11,0.06zm5 -2.53c-0.65,0 -1.31,-0 -1.96,0 -0.32,0 -0.62,-0.01 -0.62,-0.34 -0.01,-0.36 1.9,-2.13 2.15,-2.62 -1.07,-2.66 -4.6,-3.98 -7.21,-2.67 -3.92,1.97 -4.02,6.91 -0.96,9.22 0.63,0.48 1.55,0.94 2.59,1.05 0.14,-0.11 0.21,-0.21 0.49,-0.21 0.48,-0.01 1.64,0.05 1.95,-0.05 1.77,-0.55 3.31,-2.35 3.58,-4.38z"/>
   <path class="fil4" d="M25.79 11.13c-0.07,0.08 -0.1,0.14 -0.18,0.22l-4.17 4.76c0.62,0.04 1.33,0.01 1.97,0.01 1.12,0 1.43,-0.15 1.43,0.5l0 2.04c1.27,0 1.63,-0.16 1.65,0.48 0.05,2.06 -0,4.85 -0,6.94 0.6,0.04 2.49,0.01 3.22,0.01l0 -9.48c0,-0.4 0.08,-0.49 0.48,-0.5l2.92 -0 -2.18 -2.51c-0.26,-0.3 -0.47,-0.52 -0.72,-0.82 -0.07,-0.09 -0.12,-0.11 -0.19,-0.2 -0.72,-0.79 -1.67,-1.98 -2.39,-2.71 -0.2,-0.2 -0.17,-0.28 -0.37,-0.39l-1.48 1.65z"/>
   <path class="fil5" d="M16.87 22.15c-2.35,-0.24 -3.99,-1.74 -4.79,-3.31 -1.06,-2.08 -0.75,-4.65 0.49,-6.32 2.07,-2.77 5.78,-3.35 8.52,-1.41 0.65,0.46 1.57,1.41 1.84,2.16 0.16,-0.09 0.62,-0.67 0.74,-0.81 -0.49,-0.95 -1.42,-1.81 -2.29,-2.39 -3.32,-2.2 -7.78,-1.04 -9.79,2.06 -2.98,4.58 -0.06,10.54 5.28,11.06l0 -1.04z"/>
   <polygon class="fil6" points="23.3,29.74 25.79,29.74 25.79,19.54 25.77,19.35 23.31,19.35 23.3,19.54 "/>
   <polygon class="fil5" points="17.57,29.74 20.05,29.74 20.06,22.11 20.03,21.93 17.57,21.93 "/>
   <path class="fil4" d="M14.29 29.74l0.02 -5.22c-0.56,0.03 -2.07,-0.07 -2.48,0.04l0 5.16 2.46 0.01z"/>
   <path class="fil2" d="M11.83 24.56c0.06,-0.08 0.01,-0.09 0.29,-0.09l2.08 0.01c0.14,0.02 0.11,0.04 0.11,0.04 0.12,0.33 0.03,2.11 0.03,2.64 0,0.21 0.06,2.4 -0.05,2.58l-2.46 -0.01 -0 -5.16zm-0.7 -0.38l0 5.89c0,0.3 0.25,0.4 0.54,0.4l2.82 0c0.31,0 0.54,-0.14 0.54,-0.45l0 -5.74c0,-0.3 -0.1,-0.49 -0.4,-0.49l-3.12 0c-0.24,0 -0.4,0.16 -0.4,0.4z"/>
   <path class="fil2" d="M17.89 19.34c0.05,-0.04 0,-0.01 0.11,-0.06 0.05,-0.02 0.06,-0.02 0.11,-0.04 1.08,-0.35 1.7,-1.37 1.21,-2.41 -0.67,-1.43 -2.17,-0.8 -2.78,-1.47 -0.84,-0.93 0.35,-2.3 1.75,-1.56 0.49,0.26 0.35,0.42 0.65,0.43 0.34,0.01 0.47,-0.32 0.25,-0.6 -0.34,-0.45 -0.76,-0.48 -1.33,-0.73 -0.01,-0.37 0.07,-0.9 -0.36,-0.9 -0.44,0 -0.34,0.54 -0.33,0.91 -1.01,0.14 -2.04,1.26 -1.44,2.45 0.75,1.5 2.03,0.74 2.75,1.46 1.05,1.05 -0.73,2.53 -1.9,1.41 -0.55,-0.53 -0.84,0.01 -0.7,0.3 0.18,0.39 0.96,0.66 1.3,0.78 0.03,0.37 -0.06,0.85 0.38,0.83 0.41,-0.02 0.33,-0.46 0.33,-0.81z"/>
   <path class="fil5" d="M20.75 22.43c0.44,-0.15 1.11,-0.67 1.43,-0.95 0.32,-0.28 0.43,-0.19 0.43,-0.76 -0,-0.4 -0,-0.8 -0,-1.21 -0.16,0.14 -0.49,0.67 -0.88,1.01 -0.24,0.21 -0.74,0.64 -1.07,0.77 0.14,0.39 0.08,0.7 0.09,1.13z"/>
   <path class="fil5" d="M23.59 16.81c-0.09,0.79 -0.29,1.18 -0.51,1.84l1.05 -0.01 0 -1.83 -0.54 -0z"/>
   <path class="fil7" d="M14.31 24.52l-0.02 5.22c0.11,-0.19 0.05,-2.37 0.05,-2.58 0,-0.52 0.09,-2.31 -0.03,-2.64 -0.01,-0 0.03,-0.02 -0.11,-0.04l-2.08 -0.01c-0.28,0 -0.23,0.01 -0.29,0.09 0.41,-0.11 1.92,-0.01 2.48,-0.04z"/>
  </g>
 </g>
</svg>
