<?xml version="1.0" encoding="UTF-8"?>
<!DOCTYPE svg PUBLIC "-//W3C//DTD SVG 1.1//EN" "http://www.w3.org/Graphics/SVG/1.1/DTD/svg11.dtd">
<!-- Creator: CorelDRAW -->
<svg xmlns="http://www.w3.org/2000/svg" xml:space="preserve" width="33.8828mm" height="44.1789mm" version="1.1" style="shape-rendering:geometricPrecision; text-rendering:geometricPrecision; image-rendering:optimizeQuality; fill-rule:evenodd; clip-rule:evenodd"
viewBox="0 0 40.78 53.17"
 xmlns:xlink="http://www.w3.org/1999/xlink"
 xmlns:xodm="http://www.corel.com/coreldraw/odm/2003">
 <defs>
  <style type="text/css">
   <![CDATA[
    .str1 {stroke:#FEFEFE;stroke-width:0.24;stroke-miterlimit:22.9256}
    .str0 {stroke:#28A745;stroke-width:0.24;stroke-miterlimit:22.9256}
    .fil1 {fill:#FEFEFE}
    .fil3 {fill:black}
    .fil0 {fill:#28A745}
    .fil6 {fill:#67737E}
    .fil2 {fill:#7AB155}
    .fil5 {fill:#AB693D}
    .fil8 {fill:#D2E2ED}
    .fil7 {fill:#D98F65}
    .fil4 {fill:#E04446}
   ]]>
  </style>
 </defs>
 <g id="Camada_x0020_1">
  <metadata id="CorelCorpID_0Corel-Layer"/>
  <path class="fil0 str0" d="M0.12 19.66l0 1.55c0,4.47 1.93,8.53 4.31,11.71l14.76 19.77c0.17,0.23 0.25,0.32 0.42,0.36l1.49 0c0.31,0 0.47,-0.38 0.77,-0.78 0.26,-0.35 0.45,-0.6 0.71,-0.95l12.39 -16.56c2.11,-2.82 3.51,-4.56 4.7,-8.12 1.19,-3.54 1.28,-7.61 0.37,-11.25 -0.43,-1.73 -0.66,-2.07 -1.28,-3.58 -0.45,-1.1 -1.14,-2.1 -1.78,-3.08 -1.15,-1.73 -3.18,-3.77 -4.9,-4.92 -4.02,-2.69 -7.11,-3.7 -12.43,-3.7 -1.52,0 -3.07,0.3 -4.26,0.6 -5.8,1.45 -10.87,5.58 -13.39,11.01 -0.93,2 -1.89,5.06 -1.89,7.93z"/>
  <circle class="fil1 str1" cx="20.39" cy="20.16" r="14.11"/>
  <g id="_1666459991888">
   <path class="fil2" d="M10.62 20.07l3.37 0 -0.01 0.67 -3.37 0 0 1.35 1.35 0 -0.01 0.67 -1.35 0 0 1.35 0.68 0 0 0.67 -0.68 0 0 1.35 2 -0c0,-0.25 -1.28,-1.34 -0.31,-2.91 0.57,-0.92 1.63,-1.34 2.69,-1.05l0.01 -0.34 -1.58 0.06c-0.05,-0.14 -0.24,-0.57 -0.2,-0.69l1.43 -0.17 0.12 -1.29c0.33,-0 1.61,-0.06 1.83,0l0.74 3.35 1.7 -0 -0.01 -0.83 -0.5 -0.34 -0.22 0.32 -0.57 -0.31 0.66 -1.33 0.59 0.28c-0.06,0.15 -0.19,0.35 -0.16,0.51l1.89 0.19 0.01 -0.85 0.66 0.01 0.02 0.92c0.1,0.03 0.64,0.17 0.66,0.24l0.02 1.66c0.35,0.36 0.69,0.31 0.92,1.02 0.29,0.89 -0.14,1.04 -0.22,1.54l7.38 0.02 0 -1.35 -6.41 0 0.01 -0.67 6.4 0 0 -1.35 -7.41 -0.01 0.02 -0.66 7.4 -0 0 -1.35 -8.09 -0.02 0.02 -0.66 8.07 -0 0 -1.35 -19.54 0 0 1.35z"/>
   <path class="fil3" d="M28.48 14.68l1.35 0 0 1.35 -1.35 0 0 -1.35zm-3.7 0.01l3.01 0 0 1.33 -3.02 0 0.01 -1.33zm-2.02 -0.81l0.01 -0.24c0.34,0.2 1.33,0.68 1.33,1.08l0 1.3 -1.34 0 0 -2.14zm-4.05 0.13l0.67 0 0 2.02 -0.67 0 0 -2.02zm-1.35 -0l0.67 0 0 2.02 -0.67 0 -0 -2.02zm-4.04 1.35l0.67 -0.01 0.01 0.67 -0.67 0.01 -0 -0.67zm-1.68 -0.01l1.01 0 0 0.67 -1.01 0 0 -0.67zm11.92 -2.01c0.88,-0.07 5.14,-0.31 5.42,0.64 -0.3,0.08 -2.54,0.02 -3.03,0.02 -1.25,0 -1.39,0.16 -2.39,-0.66zm-6.87 2.68l-2.02 0c0,-2.23 -0.23,-2.44 0.67,-4.51 0.4,-0.92 0.5,-0.77 1.37,-1.25 0.25,-0.14 1.51,-0.89 1.67,-0.89 0.16,-0 1.4,0.74 1.65,0.87 0.84,0.47 0.99,0.33 1.38,1.23 0.9,2.11 0.68,2.27 0.68,4.54l-2.02 0c0,-2.47 0.65,-2.69 -1.68,-2.69 -2.34,0 -1.68,0.22 -1.68,2.69zm5.24 -5.04l4.99 -0.01 0.7 1.67c-0.9,0.12 -2.7,0.02 -3.69,0.02 -1.66,0 -1.37,-0 -2.01,-1.67zm3.82 -0.69c-1.86,0.04 -4.6,0.41 -6.04,-1 1.15,-0.05 2.38,-0 3.55,-0.01 0.86,-0 0.69,-0.04 1.41,0.36 0.1,0.05 1.11,0.61 1.11,0.64l-0.02 0.01zm-15.12 6.4l19.54 0c0.56,-0.21 0.32,-1.03 0.34,-1.6 0.02,-0.88 0.14,-0.89 -0.59,-1.35 -1.21,-0.76 -1.33,-0.67 -1.9,-1.97 -0.68,-1.54 -0.32,-1.24 -1.81,-2.07 -0.98,-0.54 -1.63,-1.13 -2.77,-1.1 -1.28,0.03 -2.59,-0.01 -3.87,0 -1.74,0.01 -1.5,0.11 -2.95,0.92 -1.35,0.75 -1.36,0.45 -1.98,1.89 -0.7,1.62 -0.63,1.44 -0.63,3.25l-0.67 -0 -0.01 -0.67 -0.67 -0.01 -0 0.67 -1.01 0.01 -0 -0.67 -0.67 0 -0 0.67 -0.67 0.01 0 0.67 0.67 0 0 0.67 -0.67 0.01 -0 0.67 0.34 0z"/>
   <path class="fil3" d="M21.24 24.12c1.32,-0.22 1.61,1.81 0.31,1.99 -1.34,0.18 -1.6,-1.78 -0.31,-1.99zm-7.2 -1.33c2.13,-0.42 2.77,2.91 0.58,3.31 -2.14,0.39 -2.85,-2.86 -0.58,-3.31zm3.61 0.99c0.98,-0.16 2.08,0.48 2.06,-0.73 -0.01,-0.67 -0.21,-0.98 0.46,-0.86 0.33,0.06 0.93,0.1 1.22,0.19l0 1c-0.23,0.14 -0.61,0.04 -1.1,0.45 -0.45,0.38 -0.36,0.65 -0.58,0.94l-2.01 -0.01 -0.05 -0.98zm-2.31 -3.38l0.72 0 0.24 1.29 -0.97 -0.46 0.01 -0.83zm-0.34 1.43c1.58,0.52 2.16,1.67 1.94,3.29 0.05,0.6 2.27,0.34 2.77,0.33l0.31 0.68 -4 0 0.55 -1.01c0.31,-1.33 -0.27,-2.53 -1.59,-2.94 -1.06,-0.29 -2.12,0.12 -2.69,1.05 -0.97,1.56 0.32,2.65 0.31,2.91l-2 0 -0.33 0 -0.01 0.67 0.34 0.01 19.54 0 0.33 -0 0.01 -0.67 -0.34 -0.01 -7.38 -0.02c0.08,-0.5 0.51,-0.65 0.22,-1.54 -0.23,-0.71 -0.57,-0.65 -0.92,-1.02l-0.02 -1.66c-0.03,-0.07 -0.56,-0.21 -0.66,-0.24l-0.02 -0.92 -0.66 -0.01 -0.01 0.85 -1.89 -0.19c-0.03,-0.16 0.1,-0.36 0.16,-0.51l-0.59 -0.28 -0.66 1.33 0.57 0.31 0.22 -0.32 0.5 0.34 0.01 0.83 -1.7 0 -0.74 -3.35c-0.22,-0.07 -1.5,-0.01 -1.83,-0l-0.12 1.29 -1.43 0.17c-0.04,0.11 0.16,0.55 0.2,0.69l1.58 -0.06z"/>
   <path class="fil4" d="M20.06 11.31l0.67 0.01 -0 0.67 -0.67 -0.01 0 -0.67zm-4.04 0l0.67 0.01 -0 0.67 -0.67 -0.01 0 -0.67zm2.02 -1.35l0.67 0.01 -0.01 0.67 -0.66 -0.01 0 -0.67zm-1.35 6.06c0,-2.47 -0.65,-2.69 1.68,-2.69 2.34,0 1.68,0.22 1.68,2.69l2.02 0c0,-2.28 0.23,-2.43 -0.68,-4.54 -0.39,-0.9 -0.54,-0.76 -1.38,-1.23 -0.24,-0.14 -1.48,-0.87 -1.65,-0.87 -0.17,0 -1.42,0.75 -1.67,0.89 -0.86,0.48 -0.97,0.33 -1.37,1.25 -0.89,2.07 -0.67,2.28 -0.67,4.51l2.02 0z"/>
   <polygon class="fil2" points="10.62,18.05 30.16,18.05 30.16,16.7 10.62,16.7 "/>
   <polygon class="fil2" points="10.62,28.15 30.16,28.15 30.16,26.8 10.62,26.8 "/>
   <polygon class="fil3" points="30.16,28.15 10.62,28.15 10.29,28.15 10.29,28.82 9.61,28.82 31.17,28.82 30.5,28.82 30.5,28.16 "/>
   <polygon class="fil3" points="10.62,18.72 30.16,18.72 30.49,18.72 30.5,18.05 30.16,18.05 10.62,18.05 10.29,18.05 10.29,18.71 "/>
   <path class="fil5" d="M21.92 10.99c0.63,1.66 0.35,1.67 2.01,1.67 1,0 2.79,0.11 3.69,-0.02l-0.7 -1.67 -4.99 0.01z"/>
   <path class="fil6" d="M14.13 23.46c1.33,-0.25 1.67,1.75 0.38,1.98 -1.33,0.23 -1.66,-1.73 -0.38,-1.98zm-0.08 -0.66c-2.26,0.44 -1.56,3.69 0.58,3.31 2.19,-0.4 1.54,-3.72 -0.58,-3.31z"/>
   <polygon class="fil3" points="30.16,20.74 30.49,20.74 30.5,20.07 30.16,20.07 22.09,20.07 22.07,20.72 "/>
   <polygon class="fil3" points="30.16,22.76 30.49,22.76 30.5,22.09 30.16,22.09 22.76,22.09 22.74,22.75 "/>
   <path class="fil4" d="M17.66 23.79l0.05 0.98 2.01 0.01c0.22,-0.29 0.13,-0.56 0.58,-0.94 0.49,-0.41 0.88,-0.31 1.1,-0.45l-0 -1c-0.29,-0.09 -0.89,-0.13 -1.22,-0.19 -0.67,-0.12 -0.47,0.19 -0.46,0.86 0.02,1.21 -1.09,0.57 -2.06,0.73z"/>
   <path class="fil7" d="M25.74 10.3l0.02 -0.01c0.01,-0.02 -1.01,-0.58 -1.11,-0.64 -0.72,-0.4 -0.55,-0.36 -1.41,-0.36 -1.16,0 -2.39,-0.04 -3.55,0.01 1.43,1.41 4.18,1.05 6.04,1z"/>
   <polygon class="fil3" points="30.16,24.78 30.49,24.78 30.5,24.12 30.16,24.11 23.76,24.11 23.75,24.78 "/>
   <polygon class="fil5" points="24.77,16.02 27.79,16.02 27.79,14.69 24.78,14.69 "/>
   <path class="fil7" d="M23.56 13.34c1,0.82 1.14,0.66 2.39,0.66 0.49,0 2.73,0.06 3.03,-0.02 -0.29,-0.96 -4.55,-0.71 -5.42,-0.64z"/>
   <path class="fil3" d="M14.21 24.14c0.37,-0.18 0.65,0.43 0.25,0.61 -0.37,0.16 -0.71,-0.39 -0.25,-0.61zm-0.08 -0.69c-1.28,0.25 -0.95,2.21 0.38,1.98 1.29,-0.23 0.95,-2.23 -0.38,-1.98z"/>
   <path class="fil6" d="M21.29 24.82c0.37,-0.18 0.65,0.43 0.25,0.6 -0.36,0.16 -0.71,-0.38 -0.25,-0.6zm-0.04 -0.69c-1.29,0.21 -1.03,2.17 0.31,1.99 1.3,-0.18 1.01,-2.21 -0.31,-1.99z"/>
   <path class="fil7" d="M22.75 16.02l1.34 0 0 -1.3c0,-0.4 -1,-0.88 -1.33,-1.08l-0.01 0.24 -0 2.14z"/>
   <path class="fil2" d="M16.95 25.13l-0.36 -0.01 -0.55 1.01 4 -0 -0.31 -0.68c-0.51,0.01 -2.72,0.28 -2.77,-0.33z"/>
   <polygon class="fil3" points="10.62,20.74 13.99,20.74 14,20.07 10.62,20.07 10.29,20.07 10.29,20.73 "/>
   <polygon class="fil5" points="28.47,16.02 29.82,16.02 29.82,14.68 28.48,14.68 "/>
   <polygon class="fil7" points="17.36,16.02 18.03,16.02 18.03,14 17.36,14 "/>
   <polygon class="fil4" points="18.71,16.02 19.38,16.02 19.38,14 18.71,14 "/>
   <path class="fil4" d="M15 22.17c1.32,0.41 1.9,1.61 1.59,2.94l0.36 0.01c0.21,-1.61 -0.36,-2.77 -1.94,-3.29l-0.01 0.34z"/>
   <polygon class="fil3" points="10.62,22.76 11.97,22.76 11.98,22.09 10.62,22.09 10.29,22.09 10.29,22.75 "/>
   <polygon class="fil6" points="15.34,21.23 16.31,21.7 16.07,20.41 15.35,20.4 "/>
   <polygon class="fil3" points="10.62,24.78 11.3,24.78 11.3,24.11 10.62,24.11 10.29,24.11 10.29,24.77 "/>
   <polygon class="fil3" points="16.01,11.98 16.68,11.98 16.69,11.31 16.02,11.31 "/>
   <polygon class="fil3" points="20.05,11.98 20.72,11.98 20.73,11.31 20.06,11.31 "/>
   <polygon class="fil3" points="18.03,10.63 18.7,10.63 18.71,9.97 18.04,9.96 "/>
   <path class="fil8" d="M14.21 24.14c-0.46,0.22 -0.12,0.77 0.25,0.61 0.4,-0.18 0.12,-0.79 -0.25,-0.61z"/>
   <path class="fil3" d="M21.29 24.82c-0.46,0.22 -0.11,0.76 0.25,0.6 0.4,-0.18 0.12,-0.78 -0.25,-0.6z"/>
  </g>
 </g>
</svg>
