<?xml version="1.0" encoding="UTF-8"?>
<!DOCTYPE svg PUBLIC "-//W3C//DTD SVG 1.1//EN" "http://www.w3.org/Graphics/SVG/1.1/DTD/svg11.dtd">
<!-- Creator: CorelDRAW -->
<svg xmlns="http://www.w3.org/2000/svg" xml:space="preserve" width="33.8828mm" height="44.1789mm" version="1.1" style="shape-rendering:geometricPrecision; text-rendering:geometricPrecision; image-rendering:optimizeQuality; fill-rule:evenodd; clip-rule:evenodd"
viewBox="0 0 39.68 51.74"
 xmlns:xlink="http://www.w3.org/1999/xlink"
 xmlns:xodm="http://www.corel.com/coreldraw/odm/2003">
 <defs>
  <style type="text/css">
   <![CDATA[
    .str1 {stroke:#FEFEFE;stroke-width:0.23;stroke-miterlimit:22.9256}
    .str0 {stroke:#6C757D;stroke-width:0.23;stroke-miterlimit:22.9256}
    .fil1 {fill:#FEFEFE}
    .fil2 {fill:black}
    .fil9 {fill:#0078C8}
    .fil13 {fill:#073353}
    .fil15 {fill:#365B27}
    .fil4 {fill:#3A86D0}
    .fil0 {fill:#6C757D}
    .fil14 {fill:#7BACDE}
    .fil3 {fill:#80D261}
    .fil16 {fill:#875837}
    .fil17 {fill:#AD5201}
    .fil5 {fill:#CAE5E8}
    .fil6 {fill:#D57E49}
    .fil10 {fill:#F5A86C}
    .fil11 {fill:#FD646F}
    .fil7 {fill:#FD9638}
    .fil8 {fill:#FDD1A2}
    .fil12 {fill:#FE7601}
   ]]>
  </style>
 </defs>
 <g id="Camada_x0020_1">
  <metadata id="CorelCorpID_0Corel-Layer"/>
  <path class="fil0 str0" d="M0.12 19.13l0 1.51c0,4.35 1.87,8.3 4.2,11.4l14.36 19.23c0.16,0.22 0.24,0.32 0.41,0.35l1.45 0c0.31,0 0.46,-0.37 0.75,-0.76 0.26,-0.34 0.44,-0.58 0.69,-0.92l12.06 -16.11c2.06,-2.74 3.41,-4.44 4.58,-7.9 1.16,-3.45 1.25,-7.4 0.36,-10.95 -0.42,-1.68 -0.64,-2.01 -1.24,-3.49 -0.43,-1.07 -1.1,-2.04 -1.74,-2.99 -1.12,-1.68 -3.09,-3.67 -4.77,-4.79 -3.91,-2.62 -6.92,-3.6 -12.09,-3.6 -1.47,0 -2.99,0.29 -4.14,0.58 -5.64,1.41 -10.57,5.43 -13.02,10.72 -0.9,1.95 -1.84,4.93 -1.84,7.71z"/>
  <circle class="fil1 str1" cx="19.84" cy="19.62" r="13.73"/>
  <g id="_1631187626208">
   <path class="fil2" d="M19.81 23.79c0.13,0.1 0.11,0.36 0.15,0.65l0.48 3.53c0.05,0.33 -0.06,0.36 -0.24,0.55 -0.08,0.08 -0.12,0.14 -0.18,0.23 -0.1,0.13 -0.1,0.15 -0.22,0.22l-0.2 -0.2c-0.56,-0.72 -0.54,-0.08 -0.25,-2.16 0.06,-0.47 0.13,-0.94 0.19,-1.4l0.15 -1.08c0.02,-0.17 -0,-0.24 0.11,-0.32zm-5.52 -15.01l0.63 0c0.4,0.04 0.77,0.14 1.1,0.27 0.58,0.23 0.67,0.37 1.05,0.67 0.42,0.34 1.06,1.32 1.07,1.8 0.26,-0.06 0.43,-0.13 0.74,-0.16 0.28,-0.03 0.49,-0.04 0.82,-0.04 0.63,0 1.07,-0.01 1.68,0.04 0.14,-0.61 0.24,-0.98 0.61,-1.44 0.48,-0.6 1.21,-1.12 2.13,-1.14l1.62 0c0.95,0.05 1.77,0.29 2.48,1.34 0.49,0.72 0.48,1.33 0.48,2.22 0,1.19 -0.07,0.68 0.2,1.15 0.32,0.54 0.1,1.48 -0.75,1.67 -0.35,0.08 -0.36,-0.05 -0.41,0.28 -0.12,0.79 -0.72,1.53 -1.42,1.9l0 0.7c0.19,0.05 0.16,0.14 0.37,0.16 1.13,0.12 2.07,-0.36 3.06,0.62 0.37,0.37 0.5,0.77 0.54,1.24l0 1.42 0 0.47c-0.02,0.14 -0.09,0.23 -0.29,0.26 -0.68,-0.12 -0.12,-1.47 -0.38,-2.4 -0.34,-1.2 -1.55,-0.97 -2.49,-0.99 -0.52,-0.01 -0.33,-0.24 -0.68,1.39 -0.23,1.07 -1.07,-0.45 -1.46,-0.58l-0.03 0.04 -0.04 0.04 -0.04 0.04 -0.04 0.04 -0.04 0.04 -0.04 0.04 -0.04 0.04 -0.04 0.04 -0.04 0.04 -0.04 0.04 -0.04 0.04c-0.13,0.14 -0.47,0.59 -0.76,0.48 -0.29,-0.11 -0.21,-0.65 -0.35,-0.91l-0.13 -0.7 -0.04 -0.13 -1.07 0c-0.25,0.28 -0.48,0.77 -1.11,1.06 -0,0.96 -0.12,0.89 1.24,0.89 0.46,0 0.96,-0.04 1.38,0.1 0.59,0.19 1.33,0.87 1.32,1.62 0,1.18 0.02,2.38 0.02,3.57 -0,0.52 -0.12,0.53 0.35,0.52 0.61,-0 2.22,0.05 2.6,-0.01 0.08,-0.19 0.08,-4.22 0.04,-4.67 0.01,-0.22 0.21,-0.33 0.43,-0.22 0.18,0.09 0.15,0.33 0.15,0.57l-0 4.32 1.04 0 -0 -2.92c-0,-0.4 -0.05,-0.56 0.33,-0.63 0.21,0.05 0.27,0.09 0.29,0.29l0 3.08 0 0.48c-0.02,0.19 -0.1,0.32 -0.37,0.34 -0.59,0.05 -3.94,-0 -4.83,-0 0,0.66 -0.01,1.31 0,1.97 0,0.37 0.01,0.55 -0.32,0.57l-8.9 0 -1.05 0c-0.29,-0.03 -0.31,-0.17 -0.3,-0.61 0,-0.64 0,-1.28 0,-1.93 -1.32,0 -2.65,0 -3.97,0 -1.16,0 -1.23,0.1 -1.23,-0.6l0 -6.04 0 -0.03 0 -0.1c0,-0.56 0.02,-1.01 0.38,-1.46 0.25,-0.3 0.74,-0.71 1.22,-0.75 0,-0.84 -0.12,-1.14 0.34,-1.23 0.38,0.24 0.29,0.18 0.29,1.18l1.75 0.02 0 -0.89c-0.38,-0.16 -0.69,-0.48 -0.94,-0.81 -0.22,-0.28 -0.45,-0.79 -0.5,-1.24l-0.03 -0.09 -0.29 -0.01 -0 0.79c-0.05,0.19 -0.14,0.19 -0.28,0.28 -0.43,-0.09 -0.34,-0.36 -0.33,-0.86 0,-0.17 0.03,-0.42 -0.03,-0.54 -0.03,-0.05 -0.08,-0.09 -0.13,-0.16 -0.22,-0.33 -0.23,-0.86 -0.06,-1.16 0.25,-0.43 0.22,-0.04 0.22,-0.93 -0,-2.04 1.32,-3.47 3.11,-3.78 0.09,-0.02 0.17,-0.03 0.26,-0.03zm6.46 14.34c0.5,0.12 0.47,-0.19 0.56,-0.64 0.07,-0.37 0.17,-0.73 0.23,-1.09 0.77,-0.03 1.89,-0.12 2.39,0.27 0.63,0.48 0.54,1.15 0.54,2.11 0,1.78 0,3.57 0,5.35l-1.04 0.01 0 -3.89c0,-0.35 0.13,-1.02 -0.3,-1.03 -0.43,-0.01 -0.31,0.64 -0.31,0.99l0 3.93 -2.3 -0 0.43 -0.51c0.23,-0.27 0.18,-0.28 0.12,-0.7l-0.57 -4.14c-0.05,-0.35 0.11,-0.42 0.25,-0.66zm-1.42 -0.46l0.47 -0.47 0.5 0.47c-0.08,0.18 -0.21,0.33 -0.3,0.51l-0.37 0c-0.08,-0.18 -0.22,-0.33 -0.3,-0.51zm1.37 -0.45l-0.45 -0.43c0.06,-0.19 0.08,-0.15 0.29,-0.36 0.07,-0.07 0.26,-0.32 0.35,-0.24 0.09,0.08 -0.07,0.78 -0.12,0.91l-0.07 0.11zm-1.33 -0.43l-0.44 0.43c-0.11,-0.12 -0.24,-0.88 -0.23,-0.91 0.01,-0.4 0.62,0.32 0.68,0.48zm-0.25 -1.62c0.23,0.01 0.43,0.06 0.69,0.06 0.25,-0 0.46,-0.06 0.69,-0.07 0,0.5 0.07,0.43 -0.21,0.69 -0.16,0.15 -0.28,0.34 -0.48,0.44 -0.19,-0.1 -0.32,-0.28 -0.48,-0.44 -0.27,-0.26 -0.21,-0.19 -0.21,-0.68zm-4.21 4.75c0.29,-0.09 0.24,-0.3 0.23,-0.61 -0,-0.27 -0,-0.55 -0,-0.82 0,-0.54 -0.06,-1.05 0.21,-1.46 0.2,-0.31 0.54,-0.59 1.05,-0.62 0.48,-0.04 1.19,-0.02 1.68,-0 0.06,0.35 0.15,0.7 0.22,1.06 0.09,0.46 0.06,0.79 0.57,0.67 0.34,0.6 0.31,0.23 0.14,1.46l-0.45 3.32c-0.06,0.42 -0.16,0.49 0.33,0.97 0.11,0.11 0.14,0.14 0.22,0.26l-2.3 0.01 0 -3.89c0,-0.35 0.12,-1 -0.28,-1.03 -0.46,-0.04 -0.34,0.58 -0.34,0.99l0 3.92 -1.04 0.01 0 -2.66c0,-0.33 0.07,-0.6 -0.23,-0.7 -0.22,-0.03 -0.3,0.02 -0.36,0.18 -0.01,0.16 0,0.33 -0.01,0.48 -0.01,0.19 -0.07,0.15 -0.27,0.15 -0.3,-0 -0.6,0 -0.9,0 -0.47,0 -1.35,0.05 -1.78,-0.01 -0.08,-0.2 -0.06,-4.18 -0.03,-4.68 -0.02,-0.2 -0.17,-0.32 -0.41,-0.23 -0.2,0.07 -0.18,0.29 -0.18,0.54l0 4.36 -1.04 0c0,-1.63 0,-3.26 0,-4.89 0,-1.04 -0.25,-2.38 0.91,-2.78 0.35,-0.12 0.77,-0.07 1.15,-0.07 0.17,0.4 0.14,0.48 0.42,0.8 0.2,0.22 0.4,0.41 0.61,0.62 0.36,0.36 0.76,0.91 1.59,0.9 0.96,-0.01 1.45,-0.84 2.17,-1.52 0.34,-0.32 0.32,-0.63 0.45,-0.8 0.26,0.01 0.16,0.15 0.59,0.58 0.17,0.17 0.44,0.4 0.68,0.5 0,1.06 0.13,0.84 -1.93,0.86 -0.7,0.01 -1.25,0.3 -1.55,0.67 -0.64,0.79 -0.49,1.59 -0.49,2.78 -0,0.37 -0.06,0.77 0.39,0.69zm0.23 -7.28c0.09,-0.07 0.01,-0.05 0.15,-0.04l0.01 1c0.12,0.33 0.63,0.23 1.23,0.23 -0.04,0.32 -0.61,0.81 -0.8,1 -0.25,0.25 -0.58,0.7 -1.13,0.7 -0.58,0.01 -0.88,-0.45 -1.13,-0.7 -0.19,-0.19 -0.77,-0.67 -0.82,-1 1.44,-0 1.26,0.19 1.26,-1.24 0.55,0.08 0.7,0.05 1.24,0.05zm9.42 1.55c-0.1,0.15 -0.31,0.37 -0.46,0.45 -0.04,-0.08 -0.24,-0.84 -0.18,-1 0.13,-0.04 0.09,-0.03 0.21,0.08l0.44 0.48zm0.91 0c0.07,-0.09 0.55,-0.63 0.63,-0.56 0.09,0.09 -0.02,0.36 -0.05,0.5 -0.03,0.17 -0.06,0.36 -0.12,0.52l-0.46 -0.46zm-9.58 -1c0,-1.62 -0.12,-0.5 1.12,-0.43l0.09 0.45c-0.32,0.01 -0.92,0.03 -1.2,-0.02zm8.58 -0.55c0.54,0.01 0.69,0.03 1.24,-0.05 0,0.54 0.06,0.43 -0.23,0.72 -0.15,0.14 -0.29,0.33 -0.46,0.44l-0.05 -0.04 -0.04 -0.04 -0.04 -0.04 -0.04 -0.04 -0.04 -0.04 -0.04 -0.04 -0.04 -0.04 -0.04 -0.04 -0.04 -0.04 -0.04 -0.04 -0.04 -0.04 -0.04 -0.04 -0.04 -0.04 -0.04 -0.04 -0.04 -0.04c-0.06,0 -0.04,0.01 -0.03,-0.05 -0.08,-0.1 -0.04,-0.33 -0.04,-0.48 0.13,-0.01 0.06,-0.03 0.15,0.04zm-2 0.57c0.06,-0.13 0.08,-0.26 0.08,-0.45 0.31,0 0.49,0.01 0.76,-0.18 0.28,-0.2 0.13,-0.28 0.39,-0.23l0 0.7c-0.27,0.14 -0.1,0.17 -0.53,0.17 -0.23,-0 -0.47,-0 -0.7,-0zm-1.5 -2.51c0.12,-0.05 0.63,-0.25 0.72,-0.27 0.32,0.38 0.27,0.81 0.27,1.35 0,0.55 0.04,1 -0.16,1.5 -0.28,0.7 -0.97,1.32 -1.97,1.35 -0.93,-0.04 -1.53,-0.44 -1.86,-0.98 -0.45,-0.71 -0.39,-1.49 -0.36,-2.43 0.49,-0.09 0.88,-0.07 1.39,-0.21 0.33,-0.09 0.91,-0.27 1.12,-0.47 0.15,0.06 0.16,0.15 0.35,0.19 0.18,0.04 0.32,-0.02 0.5,-0.04zm1.6 0.41c0.83,-0.02 0.86,1.01 0,1.03l0 -1.03zm-5.58 1.03c-0.86,-0.02 -0.84,-1.05 0,-1.04l0 1.04zm-0.24 -1.65c0,-1.24 -0.08,-1.9 0.64,-2.69 0.63,-0.7 1.16,-0.84 2.41,-0.84 0.39,0 1.31,-0.04 1.6,0.07 0.53,0.21 0.43,0.47 0.8,0.83 0.74,0.73 0.65,1.38 0.64,2.62l-0.43 0.03c-0.06,-0.18 -0.29,-0.73 -0.43,-0.8 -0.35,-0.17 -0.55,0.3 -1.19,0.37 0.03,-0.23 0.03,-0.41 -0.15,-0.51 -0.44,-0.24 -0.4,0.77 -2.6,0.99 -1.04,0.1 -0.7,-0.08 -1.29,-0.07zm11.04 -1.95c0.36,-0.02 0.62,0.17 0.61,0.52 -0.01,0.37 -0.25,0.5 -0.62,0.51l0.01 -1.03zm-15.98 1.03c-0.38,-0.01 -0.64,-0.15 -0.62,-0.55 0.01,-0.34 0.26,-0.5 0.62,-0.49l0 1.03zm3.51 2.36c-1.01,0.35 -1.89,-0.09 -2.36,-0.62 -0.65,-0.73 -0.54,-1.53 -0.54,-2.66 1.2,-0.07 1.8,0.07 2.6,-0.67l0.04 -0.04 0.05 -0.04 0.04 -0.04 0.04 -0.04 0.04 -0.04 0.04 -0.04 0.04 -0.04 0.04 -0.04 0.04 -0.04 0.04 -0.04 0.04 -0.04 0.04 -0.04 0.04 -0.04 0.04 -0.04c0.34,-0.39 0.79,-0.32 0.94,0.26 0.07,0.28 -0.06,0.34 -0.16,0.6 -0.31,0.82 -0.24,1.33 -0.23,2.24 0,0.55 -0.4,0.35 -0.39,1.24l-0.43 0.19zm8.43 -4.77c3.23,0.06 2.92,-0.4 3.34,0.96 0.12,0.39 0.08,0.87 0.08,1.31 0,1.05 -0.17,1.57 -0.74,2.08 -0.5,0.45 -1.33,0.71 -2.16,0.42l-0.45 -0.21c-0.1,-1.01 -0.36,-0.62 -0.36,-1.18 0,-0.78 0.08,-1.42 -0.18,-2.13 -0.06,-0.15 -0.23,-0.43 -0.25,-0.52 -0.02,-0.09 0,-0.75 0.73,-0.73zm-1.78 -0.52c0.03,-0.9 0.55,-1.56 1.09,-1.89 0.73,-0.46 1.64,-0.37 2.59,-0.36 0.8,0.01 1.56,0.35 1.99,1 0.51,0.77 0.42,1.48 0.42,2.52l-0.4 0.01c-0.27,-1.46 -0.78,-1.38 -2.25,-1.38 -0.59,0 -1.21,-0.02 -1.8,-0 -0.6,0.02 -0.89,0.29 -1.08,0.74 -0.14,-0.2 -0.27,-0.48 -0.55,-0.65zm-4.88 -0.9c0.2,0.18 0.43,0.77 0.46,1.11 -0.3,0.13 -0.36,0.27 -0.51,0.36 -0.14,-0.17 -0.15,-0.25 -0.33,-0.41 -0.18,-0.16 -0.26,-0.14 -0.43,-0.25 -1.67,-0.07 -1,1.47 -3.34,1.46 -1.17,-0 -0.6,-0.05 -1.42,-0.12 0,-0.89 0.07,-1.47 0.48,-2.12 0.78,-1.2 2.3,-1.72 3.65,-1.2 0.52,0.2 1.23,0.69 1.43,1.16z"/>
   <path class="fil3" d="M11.57 21.9l0.04 4.65 2.91 -0.01c-0.02,-0.21 -0.04,-0.43 0.05,-0.58 0.06,-0.16 0.14,-0.21 0.36,-0.18 -0.1,-0.1 -0.07,-0.08 -0.07,-0.41 0,-0.07 -0.01,-0.18 -0,-0.25 0.01,-0.2 -0.03,-0.09 0.07,-0.2 -0.45,0.07 -0.39,-0.32 -0.39,-0.69 0,-1.19 -0.14,-1.99 0.49,-2.78 0.3,-0.37 0.85,-0.66 1.55,-0.67 2.06,-0.03 1.93,0.2 1.93,-0.86 -0.25,-0.1 -0.52,-0.33 -0.68,-0.5 -0.44,-0.44 -0.33,-0.58 -0.59,-0.58 -0.14,0.17 -0.11,0.48 -0.45,0.8 -0.72,0.68 -1.21,1.51 -2.17,1.52 -0.83,0.01 -1.23,-0.54 -1.59,-0.9 -0.21,-0.21 -0.41,-0.4 -0.61,-0.62 -0.28,-0.32 -0.25,-0.39 -0.42,-0.8 -0.38,0 -0.8,-0.04 -1.15,0.07 -1.16,0.4 -0.91,1.74 -0.91,2.78 0,1.63 0,3.26 0,4.89l1.04 0 -0 -4.36c-0,-0.25 -0.02,-0.47 0.18,-0.54 0.23,-0.09 0.38,0.03 0.41,0.23z"/>
   <path class="fil4" d="M25 19.64l-0.03 0.04 -0.04 0.04 -0.04 0.04 -0.04 0.04 -0.04 0.04 -0.04 0.04 -0.04 0.04 -0.04 0.04 -0.04 0.04 -0.04 0.04 -0.04 0.04c0.03,0.08 0,0.05 0.15,0.14 0.06,0.04 0.08,0.04 0.15,0.1 0.7,0.49 1.18,1.33 1.23,2.24 0.07,1.25 0.01,2.72 0.01,4l1.92 0 -0.01 -4.55 0.05 -0.11c0.01,-0.22 0.21,-0.33 0.43,-0.22 0.18,0.09 0.15,0.33 0.15,0.57l-0 4.32 1.04 0 -0 -2.92c-0,-0.4 -0.05,-0.56 0.33,-0.63l0 -0.81c-0.68,-0.12 -0.12,-1.47 -0.38,-2.4 -0.34,-1.2 -1.55,-0.97 -2.49,-0.99 -0.52,-0.01 -0.33,-0.24 -0.68,1.39 -0.23,1.07 -1.07,-0.45 -1.46,-0.58z"/>
   <path class="fil5" d="M14.92 24.92c-0.1,0.11 -0.05,0 -0.07,0.2 -0,0.07 0,0.18 0,0.25 -0,0.33 -0.03,0.31 0.07,0.41 0.3,0.1 0.23,0.36 0.23,0.7l-0 2.66 1.04 -0.01 0 -3.92c0,-0.41 -0.12,-1.03 0.34,-0.99 0.4,0.03 0.28,0.68 0.28,1.03l0 3.89 2.3 -0.01c-0.08,-0.12 -0.11,-0.15 -0.22,-0.26 -0.48,-0.48 -0.38,-0.55 -0.33,-0.97l0.45 -3.32c0.17,-1.23 0.2,-0.86 -0.14,-1.46 -0.51,0.12 -0.48,-0.21 -0.57,-0.67 -0.07,-0.35 -0.16,-0.7 -0.22,-1.06 -0.49,-0.02 -1.2,-0.03 -1.68,0 -0.51,0.04 -0.85,0.32 -1.05,0.62 -0.27,0.42 -0.21,0.93 -0.21,1.46 0,0.27 -0,0.55 0,0.82 0,0.32 0.05,0.52 -0.23,0.61z"/>
   <path class="fil5" d="M20.75 23.12c-0.14,0.25 -0.3,0.31 -0.25,0.66l0.57 4.14c0.06,0.42 0.11,0.43 -0.12,0.7l-0.43 0.51 2.3 0 0 -3.93c0,-0.35 -0.12,-1 0.31,-0.99 0.43,0.01 0.3,0.68 0.3,1.03l0 3.89 1.04 -0.01c0,-1.78 0,-3.57 0,-5.35 0,-0.96 0.09,-1.63 -0.54,-2.11 -0.51,-0.39 -1.63,-0.3 -2.39,-0.27 -0.06,0.36 -0.15,0.72 -0.23,1.09 -0.09,0.45 -0.06,0.76 -0.56,0.64z"/>
   <path class="fil6" d="M16.76 15.49c0.59,-0.02 0.25,0.17 1.29,0.07 2.21,-0.22 2.16,-1.23 2.6,-0.99 0.17,0.09 0.18,0.28 0.15,0.51 0.63,-0.07 0.84,-0.54 1.19,-0.37 0.14,0.07 0.36,0.62 0.43,0.8l0.43 -0.03c0,-1.24 0.09,-1.88 -0.64,-2.62 -0.36,-0.36 -0.27,-0.62 -0.8,-0.83 -0.29,-0.11 -1.21,-0.07 -1.6,-0.07 -1.25,0 -1.78,0.15 -2.41,0.84 -0.72,0.79 -0.64,1.45 -0.64,2.69z"/>
   <path class="fil7" d="M16.31 11.56c0.09,-0.04 0.28,-0.32 0.38,-0.42 0.12,-0.12 0.35,-0.29 0.43,-0.4 -0.2,-0.47 -0.91,-0.95 -1.43,-1.16 -1.35,-0.52 -2.87,0 -3.65,1.2 -0.42,0.64 -0.48,1.23 -0.48,2.12 0.82,0.07 0.25,0.11 1.42,0.12 2.33,0 1.66,-1.53 3.34,-1.46z"/>
   <path class="fil8" d="M24.28 16.93c0.83,0.29 1.66,0.03 2.16,-0.42 0.57,-0.51 0.74,-1.03 0.74,-2.08 -0,-0.44 0.04,-0.92 -0.08,-1.31 -0.41,-1.36 -0.1,-0.9 -3.34,-0.96 0.1,0.28 0.35,0.6 0.48,0.98 0.29,0.84 0.21,1.71 0.21,2.61 0,0.43 0.05,0.58 -0.12,0.94 -0.07,0.15 -0.08,0.09 -0.06,0.25z"/>
   <path class="fil6" d="M21.99 11.64c0.29,0.17 0.42,0.45 0.55,0.65 0.19,-0.45 0.47,-0.73 1.08,-0.74 0.59,-0.02 1.21,0 1.8,0 1.47,0 1.98,-0.09 2.25,1.38l0.4 -0.01c-0,-1.04 0.09,-1.75 -0.42,-2.52 -0.43,-0.65 -1.19,-0.99 -1.99,-1 -0.95,-0.01 -1.86,-0.1 -2.59,0.36 -0.54,0.34 -1.06,1 -1.09,1.89z"/>
   <path class="fil8" d="M19.84 19.62c0.09,-0.11 0.22,-0.17 0.34,-0.27 0.36,-0.3 0.64,-0.73 0.77,-1.21 0.14,-0.52 0.1,-1.53 0.11,-2.16 0,-0.02 -0.01,-0.15 -0.01,-0.16 -0.04,-0.14 0.04,-0.04 -0.08,-0.14 -0.17,0.02 -0.32,0.08 -0.5,0.04 -0.2,-0.04 -0.2,-0.13 -0.35,-0.19 -0.2,0.2 -0.79,0.38 -1.12,0.47 -0.51,0.13 -0.9,0.12 -1.39,0.21 -0.03,0.94 -0.09,1.72 0.36,2.43 0.34,0.54 0.93,0.94 1.86,0.98z"/>
   <path class="fil9" d="M25.05 22.5c0.14,0.26 0.05,1.61 0.05,2.01 0,0.66 0.03,1.39 -0.01,2.04l1 0c0,-1.28 0.07,-2.74 -0.01,-4 -0.05,-0.91 -0.54,-1.75 -1.23,-2.24 -0.07,-0.05 -0.09,-0.06 -0.15,-0.1 -0.15,-0.09 -0.12,-0.06 -0.15,-0.14l0.04 -0.04 0.04 -0.04 0.04 -0.04 0.04 -0.04 0.04 -0.04 0.04 -0.04 0.04 -0.04 0.04 -0.04 0.04 -0.04 0.04 -0.04 0.03 -0.04 -0.03 0.04 -0.04 0.04 -0.04 0.04 -0.04 0.04 -0.04 0.04 -0.04 0.04 -0.04 0.04 -0.04 0.04 -0.04 0.04 -0.04 0.04 -0.04 0.04c-0.13,0.14 -0.47,0.59 -0.76,0.48 -0.29,-0.11 -0.21,-0.65 -0.35,-0.91 0.01,0.13 0.01,0.06 -0.04,0.12l-0.59 -0.04c0.17,-0.14 0.32,-0.65 0.51,-0.78l-0.04 -0.13 -1.07 0c-0.25,0.28 -0.48,0.77 -1.11,1.06 -0,0.96 -0.12,0.89 1.24,0.89 0.46,0 0.96,-0.04 1.38,0.1 0.59,0.19 1.33,0.87 1.32,1.62z"/>
   <path class="fil8" d="M15.57 12.44l-0.04 0.04 -0.04 0.04 -0.04 0.04 -0.04 0.04 -0.04 0.04 -0.04 0.04 -0.04 0.04 -0.04 0.04 -0.04 0.04 -0.04 0.04 -0.04 0.04 -0.05 0.04 -0.04 0.04c-0.8,0.74 -1.4,0.6 -2.6,0.67 0,1.13 -0.12,1.93 0.54,2.66 0.47,0.53 1.35,0.97 2.36,0.62 0.01,-0.16 0.01,-0.1 -0.06,-0.25 -0.2,-0.43 -0.12,-1.55 -0.12,-2.13 0,-1.51 0.48,-1.77 0.47,-2.09 0.01,-0.01 0.03,-0.01 0.03,-0.01l-0.05 -0.04c0.03,0.08 0.04,0.06 -0.04,0.04z"/>
   <path class="fil10" d="M15.31 18.6l-0.05 -0.11 0 -0.88 -0.11 0.02c-0.53,-0 -0.69,0.03 -1.24,-0.05 0,1.43 0.18,1.24 -1.26,1.24 0.05,0.33 0.63,0.81 0.82,1 0.25,0.25 0.55,0.71 1.13,0.7 0.55,-0.01 0.88,-0.46 1.13,-0.7 0.19,-0.19 0.75,-0.67 0.8,-1 -0.6,0 -1.11,0.1 -1.23,-0.23z"/>
   <path class="fil10" d="M24.28 16.93c-0.01,-0.16 -0,-0.1 0.06,-0.25 0.16,-0.36 0.12,-0.51 0.12,-0.94 -0,-0.89 0.08,-1.77 -0.21,-2.61 -0.13,-0.38 -0.39,-0.7 -0.48,-0.98 -0.73,-0.02 -0.75,0.64 -0.73,0.73 0.02,0.09 0.19,0.37 0.25,0.52 0.26,0.71 0.18,1.35 0.18,2.13 -0,0.56 0.26,0.17 0.36,1.18l0.45 0.21z"/>
   <path class="fil10" d="M15.34 16.93l0.43 -0.19c-0.01,-0.89 0.39,-0.7 0.39,-1.24 -0,-0.91 -0.08,-1.42 0.23,-2.24 0.1,-0.26 0.23,-0.32 0.16,-0.6 -0.14,-0.58 -0.6,-0.65 -0.94,-0.26l-0.04 0.04 -0.04 0.04 -0.04 0.04 -0.04 0.04 -0.04 0.04 -0.04 0.04 -0.04 0.04 -0.04 0.04 -0.04 0.04 -0.04 0.04 -0.04 0.04 -0.04 0.04 -0.05 0.04 -0.04 0.04 0.04 -0.04 0.05 -0.04 0.04 -0.04 0.04 -0.04 0.04 -0.04 0.04 -0.04 0.04 -0.04 0.04 -0.04 0.04 -0.04 0.04 -0.04 0.04 -0.04 0.04 -0.04 0.04 -0.04c0.08,0.02 0.07,0.04 0.04,-0.04l0.05 0.04c-0,0 -0.02,0.01 -0.03,0.01 0,0.33 -0.47,0.58 -0.47,2.09 -0,0.58 -0.08,1.7 0.12,2.13 0.07,0.15 0.08,0.09 0.06,0.25z"/>
   <path class="fil11" d="M19.81 23.79c-0.11,0.08 -0.09,0.15 -0.11,0.32l-0.15 1.08c-0.06,0.47 -0.13,0.94 -0.19,1.4 -0.29,2.08 -0.31,1.45 0.25,2.16l0.2 0.2c0.12,-0.07 0.12,-0.08 0.22,-0.22 0.07,-0.09 0.11,-0.15 0.18,-0.23 0.18,-0.18 0.28,-0.21 0.24,-0.55l-0.48 -3.53c-0.04,-0.29 -0.02,-0.55 -0.15,-0.65z"/>
   <path class="fil10" d="M20.98 15.69c0.12,0.09 0.04,-0 0.08,0.14 0,0.01 0.01,0.15 0.01,0.16 -0,0.63 0.04,1.63 -0.11,2.16 -0.13,0.48 -0.41,0.91 -0.77,1.21 -0.12,0.1 -0.25,0.16 -0.34,0.27 1,-0.03 1.68,-0.65 1.97,-1.35 0.2,-0.5 0.16,-0.95 0.16,-1.5 0,-0.54 0.05,-0.97 -0.27,-1.35 -0.09,0.02 -0.6,0.22 -0.72,0.27z"/>
   <path class="fil12" d="M11.54 15.96c-0.05,0.19 -0.14,0.19 -0.28,0.28l0.01 0.78c0.38,0.24 0.29,0.18 0.29,1.18l1.75 0.02 0 -0.89c-0.38,-0.16 -0.69,-0.48 -0.94,-0.81 -0.22,-0.28 -0.45,-0.79 -0.5,-1.24 -0.11,-0.07 -0.11,-0.05 -0.28,-0.08 0,0.17 0.04,0.61 -0.04,0.76z"/>
   <path class="fil10" d="M20.29 20.85c0.27,-0.26 0.21,-0.2 0.21,-0.69 -0.22,0.01 -0.43,0.07 -0.69,0.07 -0.25,0 -0.46,-0.05 -0.69,-0.06 0,0.49 -0.06,0.42 0.21,0.68 0.16,0.16 0.29,0.34 0.48,0.44 0.2,-0.1 0.32,-0.29 0.48,-0.44z"/>
   <path class="fil10" d="M24.48 17.63l-0.11 -0.03 0 0.46 0.03 0.05 0.04 0.04 0.04 0.04 0.04 0.04 0.04 0.04 0.04 0.04 0.04 0.04 0.04 0.04 0.04 0.04 0.04 0.04 0.04 0.04 0.04 0.04 0.04 0.04 0.04 0.04 0.04 0.04c0.06,-0 0.05,-0.02 0.05,0.04 0.16,-0.1 0.31,-0.29 0.46,-0.44 0.29,-0.29 0.23,-0.18 0.23,-0.72 -0.55,0.08 -0.69,0.06 -1.24,0.05z"/>
   <path class="fil12" d="M16.31 11.56c0.17,0.11 0.26,0.09 0.43,0.25 0.18,0.16 0.18,0.24 0.33,0.41 0.15,-0.09 0.21,-0.23 0.51,-0.36 -0.03,-0.34 -0.26,-0.94 -0.46,-1.11 -0.08,0.11 -0.3,0.27 -0.43,0.4 -0.1,0.1 -0.29,0.38 -0.38,0.42z"/>
   <path class="fil12" d="M15.9 18.19c0.29,0.05 0.88,0.03 1.2,0.02l-0.09 -0.45c-1.23,-0.06 -1.12,-1.19 -1.12,0.43z"/>
   <path class="fil13" d="M26.1 26.55l-1 -0c0.03,-0.65 0.01,-1.38 0.01,-2.04 0,-0.41 0.09,-1.75 -0.05,-2.01 0,1.18 0.02,2.38 0.02,3.57 -0,0.52 -0.12,0.53 0.35,0.52 0.61,-0 2.22,0.05 2.6,-0.01 0.08,-0.19 0.08,-4.22 0.04,-4.67l-0.05 0.11 0.01 4.55 -1.92 -0z"/>
   <path class="fil11" d="M19.33 22.66c0.08,0.18 0.22,0.33 0.3,0.51l0.37 0c0.08,-0.18 0.22,-0.33 0.3,-0.51l-0.5 -0.47 -0.47 0.47z"/>
   <path class="fil10" d="M11.83 14.57l-0 -1.03c-0.36,-0.01 -0.61,0.15 -0.62,0.49 -0.01,0.4 0.24,0.54 0.62,0.55z"/>
   <path class="fil10" d="M27.8 14.57c0.38,-0.01 0.61,-0.14 0.62,-0.51 0.01,-0.36 -0.25,-0.54 -0.61,-0.52l-0.01 1.03z"/>
   <path class="fil10" d="M17 17.13l0 -1.04c-0.84,-0.01 -0.86,1.01 0,1.04z"/>
   <path class="fil10" d="M22.58 17.13c0.86,-0.02 0.83,-1.06 0,-1.03l0 1.03z"/>
   <path class="fil5" d="M20.77 22.1c0.05,-0.13 0.22,-0.83 0.12,-0.91 -0.09,-0.08 -0.28,0.17 -0.35,0.24 -0.21,0.21 -0.22,0.17 -0.29,0.36l0.45 0.43 0.07 -0.11z"/>
   <path class="fil5" d="M19.37 21.79c-0.05,-0.16 -0.67,-0.89 -0.68,-0.48 -0,0.03 0.13,0.79 0.23,0.91l0.44 -0.43z"/>
   <path class="fil14" d="M23.93 18.63c-0.05,0.16 0.15,0.93 0.18,1 0.15,-0.08 0.36,-0.3 0.46,-0.45l-0.44 -0.48c-0.12,-0.11 -0.07,-0.11 -0.21,-0.08z"/>
   <path class="fil15" d="M14.56 25.96c-0.08,0.15 -0.06,0.37 -0.05,0.58l-2.91 0.01 -0.04 -4.65c-0.03,0.5 -0.05,4.47 0.03,4.68 0.43,0.06 1.31,0.02 1.78,0.01 0.3,-0 0.6,-0.01 0.9,-0 0.2,0 0.26,0.04 0.27,-0.15 0.01,-0.15 -0,-0.32 0.01,-0.48z"/>
   <path class="fil14" d="M25.48 19.18l0.46 0.46c0.06,-0.16 0.09,-0.35 0.12,-0.52 0.03,-0.15 0.14,-0.42 0.05,-0.5 -0.08,-0.07 -0.56,0.47 -0.63,0.56z"/>
   <path class="fil4" d="M23.46 19.65l-0.13 -0.7c-0.19,0.13 -0.34,0.64 -0.51,0.78l0.59 0.04c0.05,-0.06 0.05,0.01 0.04,-0.12z"/>
   <path class="fil16" d="M15.31 18.6l-0.01 -1c-0.14,-0.01 -0.06,-0.03 -0.15,0.04l0.11 -0.02 -0 0.88 0.05 0.11z"/>
   <path class="fil17" d="M11.54 15.96c0.08,-0.15 0.04,-0.59 0.04,-0.76 0.17,0.03 0.17,0.01 0.28,0.08l-0.03 -0.09 -0.29 -0.01 -0 0.79z"/>
   <path class="fil16" d="M24.37 18.07c-0.01,0.06 -0.02,0.05 0.03,0.05l0.04 0.04 0.04 0.04 0.04 0.04 0.04 0.04 0.04 0.04 0.04 0.04 0.04 0.04 0.04 0.04 0.04 0.04 0.04 0.04 0.04 0.04 0.04 0.04 0.04 0.04 0.04 0.04 0.05 0.04c0,-0.06 0.01,-0.04 -0.05,-0.04l-0.04 -0.04 -0.04 -0.04 -0.04 -0.04 -0.04 -0.04 -0.04 -0.04 -0.04 -0.04 -0.04 -0.04 -0.04 -0.04 -0.04 -0.04 -0.04 -0.04 -0.04 -0.04 -0.04 -0.04 -0.04 -0.04 -0.04 -0.04 -0.03 -0.05 -0 -0.46 0.11 0.03c-0.09,-0.07 -0.02,-0.05 -0.15,-0.04 -0.01,0.15 -0.04,0.38 0.04,0.48z"/>
  </g>
 </g>
</svg>
