<?xml version="1.0" encoding="UTF-8"?>
<!DOCTYPE svg PUBLIC "-//W3C//DTD SVG 1.1//EN" "http://www.w3.org/Graphics/SVG/1.1/DTD/svg11.dtd">
<!-- Creator: CorelDRAW -->
<svg xmlns="http://www.w3.org/2000/svg" xml:space="preserve" width="33.8828mm" height="44.1789mm" version="1.1" style="shape-rendering:geometricPrecision; text-rendering:geometricPrecision; image-rendering:optimizeQuality; fill-rule:evenodd; clip-rule:evenodd"
viewBox="0 0 38.66 50.41"
 xmlns:xlink="http://www.w3.org/1999/xlink"
 xmlns:xodm="http://www.corel.com/coreldraw/odm/2003">
 <defs>
  <style type="text/css">
   <![CDATA[
    .str1 {stroke:#FEFEFE;stroke-width:0.23;stroke-miterlimit:22.9256}
    .str0 {stroke:#007BFF;stroke-width:0.23;stroke-miterlimit:22.9256}
    .fil1 {fill:#FEFEFE}
    .fil2 {fill:black}
    .fil0 {fill:#007BFF}
    .fil4 {fill:#858390}
    .fil6 {fill:#B5E145}
    .fil5 {fill:#EB4E27}
    .fil3 {fill:#F0F1F1}
    .fil7 {fill:#FDCC09}
   ]]>
  </style>
 </defs>
 <g id="Camada_x0020_1">
  <metadata id="CorelCorpID_0Corel-Layer"/>
  <path class="fil0 str0" d="M0.11 18.64l0 1.47c0,4.24 1.83,8.09 4.09,11.1l14 18.74c0.16,0.22 0.24,0.31 0.4,0.34l1.41 0c0.3,0 0.44,-0.36 0.73,-0.74 0.25,-0.33 0.42,-0.57 0.67,-0.9l11.75 -15.7c2,-2.67 3.32,-4.32 4.46,-7.7 1.13,-3.36 1.22,-7.22 0.35,-10.67 -0.41,-1.64 -0.63,-1.96 -1.21,-3.4 -0.42,-1.04 -1.08,-1.99 -1.69,-2.92 -1.09,-1.64 -3.01,-3.57 -4.65,-4.67 -3.81,-2.55 -6.74,-3.51 -11.78,-3.51 -1.44,0 -2.91,0.29 -4.04,0.57 -5.49,1.38 -10.3,5.29 -12.69,10.44 -0.88,1.9 -1.8,4.8 -1.8,7.52z"/>
  <circle class="fil1 str1" cx="19.33" cy="19.12" r="13.38"/>
  <g id="_1631586989184">
   <path class="fil2" d="M22.32 24.1l1.26 0 -0.02 1.24c-0.19,-0.05 -0.45,-0.21 -0.64,-0.2 -0.19,0.01 -0.41,0.16 -0.6,0.19l0 -1.24zm-13.4 1.43l0 -0.46c0.06,-0.79 0.41,-1.56 1.14,-2.15 0.65,-0.52 1.03,-0.5 1.27,-0.68 -0.46,-0.38 -0.85,-0.71 -1.1,-1.37 -0.52,-1.32 -0.19,-2.75 0.85,-3.64 0.42,-0.35 1.18,-0.75 1.74,-0.74l0 -3.01 -2.57 -0.89c-0.4,-0.13 -0.94,-0.23 -1,-0.75 -0.07,-0.56 0.47,-0.7 0.86,-0.83l3.83 -1.33c0.73,-0.26 0.96,-0.43 1.2,-0.11 0.05,0.36 -0.07,0.38 -0.37,0.48 -0.24,0.08 -0.46,0.16 -0.7,0.24 -0.47,0.16 -0.92,0.32 -1.39,0.48 -0.46,0.16 -2.57,0.82 -2.8,0.99 0.15,0.11 2.69,1 2.93,1.03 0.17,-0.31 -0.1,-0.7 0.91,-0.86 3.54,-0.57 6.61,-0.59 10.15,-0.01 1.03,0.17 0.76,0.57 0.94,0.87 0.23,-0.03 2.78,-0.92 2.92,-1.03 -0.22,-0.15 -5.2,-1.82 -5.9,-2.06 -0.53,-0.18 -2.61,-0.98 -3,-0.98 -0.33,-0.01 -1.18,0.33 -1.53,0.46 -0.77,0.27 -1.17,0.55 -1.37,0.11 -0.03,-0.39 0.35,-0.42 0.68,-0.52 0.3,-0.1 0.6,-0.21 0.9,-0.32 0.8,-0.27 1.1,-0.51 1.97,-0.21l7.26 2.5c0.44,0.16 1.46,0.37 1.6,0.84 0.17,0.58 -0.06,1.76 0.06,2.33 0.15,0.17 0.46,0.19 0.71,0.59 0.19,0.29 0.22,0.71 0.12,1.04 -0.19,0.58 -0.33,0.14 -0.05,0.85 0.27,0.67 0.73,1.44 0.47,1.93 -0.35,0.67 -0.94,0.49 -2.04,0.49 -0.54,0 -0.58,0.06 -1.01,-0.24 -0.08,0.38 -0.19,0.72 -0.17,1.18 0.01,0.33 0.12,0.83 0.23,1.11 0.32,0.14 0.54,0.09 0.79,0.43 0.17,0.23 0.26,0.63 0.12,0.89 0.35,0.03 0.52,0.01 0.79,0.23 0.21,0.17 0.33,0.41 0.35,0.67 0.07,0.9 -0.81,0.99 -0.95,1.04 -0.3,0.7 -0.3,1.76 0,2.46 0.29,0.12 0.43,0.06 0.68,0.33 0.58,0.62 0.18,1.62 -0.79,1.61 -5.2,-0.04 -10.48,0.01 -15.7,0 -1.73,-0 -2.94,-1.46 -3.05,-3zm15.51 1.42c-0.02,-0.5 -0.94,-0.33 -1.36,-0.33l-10.25 0c-0.5,0 -1.05,0.08 -1.47,-0.24 -0.78,-0.6 -0.67,-1.76 0.21,-2.17 0.45,-0.21 2.66,-0.11 3.3,-0.11 1.14,0 2.28,0 3.42,0 1.09,0 2.35,-0.06 3.41,0.01 0.05,0.4 -0.13,1.75 0.15,1.95 0.29,0.13 0.71,-0.15 1,-0.25 0.24,-0.08 0.65,0.19 0.9,0.27 0.67,0.21 0.41,-0.93 0.46,-1.98l2.91 0c-0.04,0.43 -0.17,0.74 -0.17,1.25 0,0.51 0.14,0.83 0.18,1.26 -0.36,0.03 -0.74,0.01 -1.11,0.01 -0.33,-0 -0.73,-0.1 -0.75,0.33 0.1,0.42 0.69,0.28 1.07,0.28 0.43,0 0.87,-0 1.3,-0 0.52,0 0.6,0.46 0.31,0.63 -0.16,0.09 -1.01,0.05 -1.25,0.05l-10.37 -0c-1.02,0 -4.27,0.12 -5.03,-0.13 -1.38,-0.46 -2.07,-1.92 -1.6,-3.29 0.2,-0.59 0.66,-1.1 1.21,-1.39 0.71,-0.38 1.48,-0.29 2.25,-0.29 3.44,0 6.88,0 10.33,0l3.91 -0c0.3,-0.01 0.9,0.01 0.68,0.5 -0.12,0.27 -0.86,0.18 -1.13,0.18l-14.19 -0c-0.85,0 -1.37,-0.06 -2,0.59 -0.52,0.53 -0.66,1.27 -0.4,1.97 0.6,1.57 2.46,1.19 3.99,1.19l9.07 -0c0.42,-0 0.88,0.14 1.03,-0.28zm-9.52 -8.57l1.23 0.01 -0 1.22c-0.21,-0.01 -0.41,-0.2 -0.63,-0.19 -0.13,0 -0.46,0.15 -0.62,0.2l0.02 -1.23zm14.08 -0.2c-0.26,0.05 -0.83,0.02 -1.12,0.02 -0.27,0 -0.85,0.1 -0.86,-0.25 -0,-0.17 0.52,-1.35 0.62,-1.62 0.42,0.03 0.39,0.06 0.84,-0 0.12,0.18 0.31,0.7 0.4,0.94 0.13,0.31 0.38,0.67 0.12,0.91zm-13.03 2.95c-0.14,-0.35 -0.66,-0.23 -0.98,-0.23 -0.38,0 -0.76,0 -1.14,0 -0.75,0 -1.25,0.07 -1.73,-0.57 -0.41,-0.54 -0.21,-1.23 0.23,-1.64 0.43,-0.4 1.35,-0.35 1.92,-0.31 0.12,1.04 -0.28,2.23 0.52,1.94 0.28,-0.1 0.6,-0.34 0.89,-0.23 0.27,0.1 0.67,0.35 0.94,0.23 0.23,-0.17 0.14,-0.66 0.14,-0.95 0,-0.33 -0.01,-0.66 0,-1l9.25 0.01c-0.04,0.44 -0.18,0.74 -0.18,1.28 0,0.51 0.14,0.81 0.18,1.23 -0.55,0.05 -6.98,0.01 -8.23,0.01 -0.32,0 -0.84,-0.12 -0.98,0.23 -0.03,0.55 0.72,0.38 1.14,0.38l7.6 0c0.29,0 1.26,-0.1 1.42,0.15 0.11,0.18 0.05,0.45 -0.17,0.51 -0.25,0.07 -11.67,0.02 -12.92,0.02 -1.02,-0 -1.59,0.04 -2.42,-0.64 -1.17,-0.97 -1.2,-3.13 0.35,-4.08 0.83,-0.51 1.75,-0.39 2.68,-0.39 1.23,0 11.9,-0.06 12.12,0.04 0.02,0.1 -0.15,0.53 -0.22,0.62 -0.11,0.07 -11.54,0.02 -11.98,0.02 -0.87,0 -1.8,-0.15 -2.5,0.49 -0.62,0.57 -0.8,1.42 -0.44,2.19 0.62,1.31 2.02,1.07 3.43,1.07 0.43,0 1.07,0.17 1.06,-0.38zm11.91 -6.56c0.73,-0.28 1.16,0.88 0.42,1.16 -0.76,0.29 -1.22,-0.86 -0.42,-1.16zm-5.87 0.63c0.14,0.34 0.63,0.23 0.99,0.23 0.4,0 0.79,0 1.19,0l-0.03 1.05 -10.7 -0.01 0 -1.01c0.27,-0.07 6.07,-0.03 6.97,-0.03 0.32,0 0.61,0.09 0.74,-0.23 0.01,-0.45 -0.32,-0.38 -0.66,-0.38l-7.04 -0c-0.03,-0.28 -0.04,-1.96 0.02,-2.18 0.52,-0.31 4.55,-0.52 5.35,-0.51 0.74,0 4.89,0.21 5.31,0.52 0.05,0.21 0.05,1.93 0.01,2.17 -0.4,0.02 -0.85,0.01 -1.25,0.01 -0.39,-0 -0.91,-0.13 -0.9,0.38zm4.93 1.25l-2.11 0 0 -2.97 2.93 -1.02 0 1.47c-0.29,0.18 -0.74,0.22 -0.91,1.04 -0.13,0.66 0.33,0.77 0.23,1.11 -0.04,0.13 -0.09,0.21 -0.13,0.36z"/>
   <path class="fil3" d="M24.43 26.95c0.18,0.05 0.64,0.05 0.82,0 0.01,-0.43 0.42,-0.33 0.75,-0.33 0.37,0 0.74,0.02 1.11,-0.01 -0.04,-0.43 -0.17,-0.75 -0.18,-1.26 -0,-0.51 0.13,-0.82 0.17,-1.25l-2.91 -0c-0.05,1.04 0.21,2.19 -0.46,1.98 -0.24,-0.08 -0.66,-0.35 -0.9,-0.27 -0.29,0.09 -0.71,0.38 -1,0.25 -0.28,-0.21 -0.1,-1.55 -0.15,-1.95 -1.07,-0.06 -2.32,-0.01 -3.41,-0.01 -1.14,0 -2.28,0 -3.42,0 -0.64,0 -2.84,-0.09 -3.3,0.11 -0.88,0.4 -0.99,1.57 -0.21,2.17 0.42,0.32 0.98,0.24 1.47,0.24l10.25 0c0.41,0 1.33,-0.17 1.36,0.33z"/>
   <path class="fil4" d="M15.94 9.29l-0.79 0.28c0.05,0.36 -0.07,0.38 -0.37,0.48 -0.24,0.08 -0.46,0.16 -0.7,0.24 -0.47,0.16 -0.92,0.32 -1.39,0.48 -0.46,0.16 -2.57,0.82 -2.8,0.99 0.15,0.11 2.69,1 2.93,1.03 0.17,-0.31 -0.1,-0.7 0.91,-0.86 3.54,-0.57 6.61,-0.59 10.15,-0.01 1.03,0.17 0.76,0.57 0.94,0.87 0.23,-0.03 2.78,-0.92 2.92,-1.03 -0.22,-0.15 -5.2,-1.82 -5.9,-2.06 -0.53,-0.18 -2.61,-0.98 -3,-0.98 -0.33,-0.01 -1.18,0.33 -1.53,0.46 -0.77,0.27 -1.17,0.55 -1.37,0.11z"/>
   <path class="fil3" d="M15.96 21.13c0.08,0.13 -0.02,0.06 0.12,0.12l0.61 0c0.13,-0.06 0.03,0.01 0.11,-0.12 0.14,-0.35 0.66,-0.23 0.98,-0.23 1.25,0 7.67,0.05 8.23,-0.01 -0.04,-0.42 -0.18,-0.72 -0.18,-1.23 -0,-0.54 0.14,-0.83 0.18,-1.28l-9.25 -0.01c-0.01,0.34 -0,0.67 -0,1 0,0.28 0.09,0.77 -0.14,0.95 -0.27,0.12 -0.67,-0.13 -0.94,-0.23 -0.3,-0.11 -0.61,0.13 -0.89,0.23 -0.81,0.29 -0.4,-0.9 -0.52,-1.94 -0.57,-0.05 -1.49,-0.1 -1.92,0.31 -0.44,0.41 -0.64,1.11 -0.23,1.64 0.48,0.64 0.98,0.57 1.73,0.57 0.38,0 0.76,0 1.14,0 0.32,0 0.84,-0.12 0.98,0.23z"/>
   <path class="fil4" d="M21.17 15.2l0.83 0c-0.01,-0.51 0.52,-0.38 0.9,-0.38 0.41,0 0.85,0.02 1.25,-0.01 0.04,-0.24 0.04,-1.96 -0.01,-2.17 -0.42,-0.31 -4.57,-0.52 -5.31,-0.52 -0.8,-0 -4.84,0.2 -5.35,0.51 -0.05,0.22 -0.05,1.89 -0.02,2.18l7.04 0c0.34,-0 0.67,-0.07 0.66,0.38z"/>
   <path class="fil5" d="M25.26 26.95c-0.18,0.05 -0.64,0.05 -0.82,-0 -0.15,0.43 -0.61,0.28 -1.03,0.28l-9.07 0c-1.53,0 -3.39,0.38 -3.99,-1.19 -0.27,-0.69 -0.12,-1.44 0.4,-1.97 0.64,-0.65 1.15,-0.59 2,-0.59l14.19 0c0.27,-0 1,0.09 1.13,-0.18 0.22,-0.49 -0.38,-0.51 -0.68,-0.5l-3.91 0c-3.44,0 -6.88,0 -10.33,0 -0.78,-0 -1.54,-0.08 -2.25,0.29 -0.55,0.29 -1.01,0.8 -1.21,1.39 -0.47,1.37 0.22,2.84 1.6,3.29 0.76,0.25 4.02,0.13 5.03,0.13l10.37 0c0.23,0 1.09,0.04 1.25,-0.05 0.29,-0.16 0.21,-0.62 -0.31,-0.63 -0.43,-0 -0.87,0 -1.3,0 -0.38,0 -0.97,0.14 -1.07,-0.28z"/>
   <path class="fil6" d="M16.81 21.13c-0.08,0.14 0.02,0.06 -0.11,0.12l-0.61 0c-0.13,-0.06 -0.04,0.01 -0.12,-0.12 0.01,0.55 -0.63,0.38 -1.06,0.38 -1.41,-0 -2.81,0.24 -3.43,-1.07 -0.36,-0.77 -0.18,-1.62 0.44,-2.19 0.7,-0.64 1.63,-0.49 2.5,-0.49 0.44,0 11.87,0.05 11.98,-0.02 0.07,-0.09 0.24,-0.52 0.22,-0.62 -0.22,-0.1 -10.89,-0.04 -12.12,-0.04 -0.93,0 -1.85,-0.12 -2.68,0.39 -1.55,0.95 -1.52,3.11 -0.35,4.08 0.83,0.68 1.4,0.64 2.42,0.64 1.25,0 12.67,0.05 12.92,-0.02 0.22,-0.06 0.28,-0.33 0.17,-0.51 -0.16,-0.25 -1.12,-0.15 -1.42,-0.15l-7.6 0c-0.42,0 -1.18,0.17 -1.14,-0.38z"/>
   <path class="fil7" d="M22.01 15.2l-0.83 0c-0.13,0.32 -0.43,0.23 -0.74,0.23 -0.9,-0 -6.7,-0.04 -6.97,0.03l-0 1.01 10.7 0.01 0.03 -1.05c-0.4,0 -0.79,0 -1.19,0 -0.35,0 -0.84,0.11 -0.99,-0.23z"/>
   <path class="fil7" d="M29 18.18c0.26,-0.24 0.01,-0.6 -0.12,-0.91 -0.1,-0.24 -0.28,-0.76 -0.4,-0.94 -0.45,0.06 -0.42,0.03 -0.84,0 -0.1,0.27 -0.63,1.45 -0.62,1.62 0.01,0.35 0.59,0.25 0.86,0.25 0.29,0 0.87,0.03 1.12,-0.02z"/>
   <path class="fil7" d="M22.32 25.34c0.19,-0.03 0.41,-0.18 0.6,-0.19 0.19,-0.01 0.45,0.15 0.64,0.2l0.02 -1.24 -1.26 -0 -0 1.24z"/>
   <path class="fil5" d="M14.9 19.61c0.15,-0.05 0.49,-0.19 0.62,-0.2 0.22,-0 0.42,0.18 0.63,0.19l0 -1.22 -1.23 -0.01 -0.02 1.23z"/>
   <path class="fil7" d="M27.87 14.57c-0.8,0.3 -0.34,1.46 0.42,1.16 0.74,-0.28 0.31,-1.44 -0.42,-1.16z"/>
  </g>
 </g>
</svg>
