<?xml version="1.0" encoding="UTF-8"?>
<!DOCTYPE svg PUBLIC "-//W3C//DTD SVG 1.1//EN" "http://www.w3.org/Graphics/SVG/1.1/DTD/svg11.dtd">
<!-- Creator: CorelDRAW -->
<svg xmlns="http://www.w3.org/2000/svg" xml:space="preserve" width="33.8828mm" height="44.1789mm" version="1.1" style="shape-rendering:geometricPrecision; text-rendering:geometricPrecision; image-rendering:optimizeQuality; fill-rule:evenodd; clip-rule:evenodd"
viewBox="0 0 37.63 49.06"
 xmlns:xlink="http://www.w3.org/1999/xlink"
 xmlns:xodm="http://www.corel.com/coreldraw/odm/2003">
 <defs>
  <style type="text/css">
   <![CDATA[
    .str1 {stroke:#FEFEFE;stroke-width:0.22;stroke-miterlimit:22.9256}
    .str0 {stroke:#343A40;stroke-width:0.22;stroke-miterlimit:22.9256}
    .fil1 {fill:#FEFEFE}
    .fil2 {fill:black}
    .fil5 {fill:#2FB2E8}
    .fil0 {fill:#343A40}
    .fil9 {fill:#943D28}
    .fil7 {fill:#C56A40}
    .fil8 {fill:#E29D63}
    .fil6 {fill:#FE85B2}
    .fil10 {fill:#FF7A3C}
    .fil4 {fill:#FFD185}
    .fil3 {fill:#FFE8C2}
   ]]>
  </style>
 </defs>
 <g id="Camada_x0020_1">
  <metadata id="CorelCorpID_0Corel-Layer"/>
  <path class="fil0 str0" d="M0.11 18.14l0 1.43c0,4.13 1.78,7.87 3.98,10.81l13.62 18.24c0.16,0.21 0.23,0.3 0.39,0.34l1.37 0c0.29,0 0.43,-0.35 0.71,-0.72 0.24,-0.33 0.41,-0.55 0.65,-0.87l11.43 -15.28c1.95,-2.6 3.24,-4.21 4.34,-7.49 1.1,-3.27 1.18,-7.02 0.34,-10.38 -0.4,-1.6 -0.61,-1.91 -1.18,-3.31 -0.41,-1.01 -1.05,-1.94 -1.65,-2.84 -1.06,-1.6 -2.93,-3.48 -4.52,-4.54 -3.71,-2.48 -6.56,-3.41 -11.47,-3.41 -1.4,0 -2.83,0.28 -3.93,0.55 -5.35,1.34 -10.03,5.15 -12.35,10.16 -0.86,1.85 -1.75,4.67 -1.75,7.31z"/>
  <circle class="fil1 str1" cx="18.81" cy="18.6" r="13.02"/>
  <g id="_1666465064064">
   <path class="fil2" d="M24.5 27.01l0.96 0 0 0.64 -0.96 0 -12.52 0 0 -0.64 12.52 0zm-1.27 -1.29l0.96 -0 0 0.65 -0.96 -0 -9.96 -0 0 -0.64 9.96 -0zm0.31 -1.92l4.86 0 0 1.28 -4.86 0 0 -1.28zm-1.28 -3.29l0.64 0 0 4.58 -0.64 0 0 -4.58zm-1.28 0l0.64 0 -0 4.58 -0.64 0 -0 -4.58zm-1.28 0l0.64 0 0 4.58 -0.64 0 0 -4.58zm-1.28 1.93l0.64 0 0 2.65 -0.64 0 0 -2.65zm-1.28 -1.93l0.64 0 0 4.58 -0.64 0 0 -4.58zm-1.28 0l0.64 0 0 4.58 -0.64 0 0 -4.58zm-1.28 0l0.64 0 0 4.58 -0.64 0 -0 -4.58zm-5.5 3.3l4.86 0 -0.02 1.28 -4.84 0 0 -1.28zm18.7 -3.3l0.65 0 0 2.66 -0.65 0 0 -2.66zm-2.93 0l2.29 0 0 2.65 -2.29 0 0 -2.65zm-1.28 0l0.64 0 0 2.65 -0.64 0 0 -2.65zm-10.28 -0l0.66 0 -0.01 2.66 -0.65 0 -0 -2.66zm-2.92 0l2.29 0 0 2.65 -2.29 0 0 -2.65zm-1.28 0l0.64 0 0 2.65 -0.64 0 0 -2.65zm9.35 0l0.64 0 0 1.28 -0.64 0 -0 -1.28zm-8.7 -1.6c0.07,0.43 0.46,0.32 0.9,0.32 5.78,-0 11.64,-0.04 17.4,0 0.38,-0 1.06,-0.13 1.03,0.34 -0.02,0.42 -0.67,0.3 -1.03,0.3 -6.15,0.04 -12.39,0 -18.56,0 -0.37,0 -1,0.12 -1.02,-0.3 -0.03,-0.51 0.54,-0.13 0.63,-0.66l0 -0.96 18.41 -0 0.94 -0 0 0.65 -0.94 -0c-5.57,-0.07 -11.37,0.01 -17,-0 -0.39,-0 -0.72,-0.08 -0.77,0.32zm17.73 -2.25l0.96 0 0 0.64 -0.96 0 -18.38 -0 0 -0.64 18.38 -0zm-5.18 -1.93l1.92 0 0 1.28 -1.92 0 0 -1.28zm-1.6 0l0.97 -0 0 1.29 -0.97 -0 -4.81 -0 0 -1.28 4.81 -0zm-7.38 -0l1.92 0 0 1.28 -1.92 0 0 -1.28zm9.96 -1.28c0.47,0.03 0.77,0.29 0.9,0.65l-0.88 -0 -0.92 -0c0.14,-0.37 0.42,-0.6 0.9,-0.64zm-2.57 0l0.96 0 0 0.64 -0.96 0 -5.01 0 0.19 0 -0.02 -0.64 4.84 0zm-6.41 -0c0.47,0.03 0.77,0.29 0.9,0.65l-0.88 -0 -0.92 -0c0.14,-0.37 0.42,-0.6 0.9,-0.64zm1.62 -0.64c0.15,-1.4 1.35,-2.57 2.87,-2.57 1.51,0 2.72,1.17 2.86,2.57l-5.73 0zm3.19 -5.78l1.93 0 0 0.64 -1.93 0 0 -0.65zm-0.66 2.57c-0.46,0.04 -0.96,0.21 -1.28,0.38 -0.71,0.37 -1.29,0.97 -1.61,1.72 -0.17,0.4 -0.31,0.9 -0.31,1.36 -0.32,-0.07 -0.8,-0.52 -1.7,-0.07 -0.23,0.12 -0.26,0.17 -0.43,0.34 -0.6,0.6 -0.44,1.67 -0.44,2.69l-3.94 0c-0.38,0 -0.26,0.76 -0.26,1.16 0,0.48 0,0.97 0,1.45 -0.41,0.22 -0.64,0.4 -0.64,0.98 0,0.21 0.1,0.39 0.19,0.53 0.12,0.17 0.27,0.23 0.45,0.32 0,0.25 -0.06,4.92 0.03,5.1 0.03,0.06 0.14,0.16 0.22,0.16l3.94 0 0 0.64c-1.51,0 -1.28,-0.23 -1.28,1.58 0,0.21 0.14,0.34 0.34,0.34l14.12 0c0.48,0 0.34,-0.75 0.34,-1.5 0,-0.56 -0.39,-0.43 -1.28,-0.43l0 -0.64 3.94 0c0.37,0 0.26,-0.73 0.26,-1.11l0 -4.15c0.41,-0.22 0.64,-0.4 0.64,-0.98 0,-0.48 -0.34,-0.69 -0.64,-0.86 0,-0.22 0.04,-2.3 -0.03,-2.45 -0.03,-0.06 -0.14,-0.16 -0.22,-0.16l-3.94 0c0,-1.13 0.22,-2.48 -0.84,-3.01 -0.92,-0.46 -1.39,-0.02 -1.73,0.06 0,-0.19 -0.06,-0.53 -0.1,-0.72 -0.06,-0.29 -0.2,-0.65 -0.34,-0.9 -0.55,-1.01 -1.61,-1.75 -2.77,-1.85l0 -1.28 2.23 0c0.48,0 0.34,-0.75 0.34,-1.5 0,-0.26 -0.09,-0.43 -0.34,-0.43l-2.57 0c-0.48,0 -0.34,0.68 -0.34,1.41 0,0.6 0,1.2 0,1.8z"/>
   <path class="fil3" d="M28 19.86c0.1,-0.32 0.1,-0.32 0,-0.64 -5.76,-0.04 -11.62,-0 -17.4,-0 -0.44,0 -0.82,0.11 -0.9,-0.32l-0.65 0c-0.09,0.53 -0.66,0.15 -0.63,0.66 0.02,0.42 0.65,0.3 1.02,0.3 6.17,0 12.41,0.04 18.56,-0z"/>
   <path class="fil4" d="M9.05 18.9l0.65 0c0.05,-0.4 0.38,-0.32 0.77,-0.32 5.63,0.01 11.43,-0.06 17,0l0 -0.64 -18.41 0 -0 0.96z"/>
   <polygon class="fil3" points="27.43,17.3 27.43,16.65 9.05,16.65 9.05,17.3 "/>
   <path class="fil5" d="M15.86 12.8l5.73 -0c-0.15,-1.39 -1.36,-2.57 -2.86,-2.57 -1.52,0 -2.72,1.16 -2.87,2.57z"/>
   <polygon class="fil3" points="24.5,27.65 24.5,27.01 11.99,27.01 11.99,27.65 "/>
   <polygon class="fil4" points="23.23,26.37 23.23,25.72 13.27,25.73 13.27,26.37 "/>
   <polygon class="fil6" points="23.54,25.09 28.39,25.08 28.39,23.8 23.54,23.8 "/>
   <polygon class="fil6" points="9.05,25.09 13.89,25.09 13.91,23.8 9.05,23.8 "/>
   <polygon class="fil3" points="20.65,16.01 20.65,14.73 15.84,14.73 15.84,16.01 "/>
   <polygon class="fil7" points="24.82,23.16 27.11,23.16 27.11,20.51 24.82,20.51 "/>
   <polygon class="fil7" points="10.34,23.16 12.63,23.16 12.63,20.51 10.34,20.51 "/>
   <polygon class="fil3" points="20.65,14.09 20.65,13.45 15.81,13.45 15.84,14.09 15.64,14.09 "/>
   <polygon class="fil3" points="14.55,25.09 15.19,25.09 15.19,20.51 14.55,20.51 "/>
   <polygon class="fil3" points="17.12,25.09 17.76,25.09 17.76,20.51 17.12,20.51 "/>
   <polygon class="fil3" points="22.26,25.09 22.9,25.09 22.9,20.51 22.26,20.51 "/>
   <polygon class="fil3" points="19.69,25.09 20.33,25.09 20.33,20.51 19.69,20.51 "/>
   <polygon class="fil8" points="15.84,25.09 16.48,25.09 16.48,20.51 15.84,20.51 "/>
   <polygon class="fil8" points="20.97,25.09 21.61,25.09 21.61,20.51 20.97,20.51 "/>
   <polygon class="fil6" points="22.26,16.01 24.18,16.01 24.18,14.73 22.26,14.73 "/>
   <polygon class="fil6" points="13.27,16.01 15.19,16.01 15.19,14.73 13.27,14.73 "/>
   <polygon class="fil8" points="13.26,23.16 13.91,23.16 13.92,20.5 13.26,20.5 "/>
   <polygon class="fil8" points="27.75,23.16 28.4,23.16 28.4,20.5 27.75,20.5 "/>
   <polygon class="fil4" points="9.05,23.16 9.7,23.16 9.7,20.51 9.05,20.51 "/>
   <polygon class="fil9" points="18.4,25.09 19.05,25.09 19.05,22.43 18.4,22.43 "/>
   <polygon class="fil4" points="23.54,23.16 24.18,23.16 24.18,20.51 23.54,20.51 "/>
   <polygon class="fil10" points="19.04,7.67 20.97,7.67 20.97,7.03 19.04,7.02 "/>
   <polygon class="fil6" points="20.65,16.01 21.62,16.02 21.62,14.73 20.65,14.73 "/>
   <polygon class="fil8" points="18.4,21.79 19.05,21.79 19.05,20.51 18.4,20.51 "/>
   <polygon class="fil8" points="23.23,26.37 24.19,26.37 24.19,25.72 23.23,25.72 "/>
   <polygon class="fil4" points="27.43,17.3 28.4,17.3 28.4,16.65 27.43,16.65 "/>
   <polygon class="fil4" points="24.5,27.65 25.46,27.65 25.46,27.01 24.5,27.01 "/>
   <polygon class="fil4" points="20.65,14.09 21.61,14.09 21.61,13.45 20.65,13.45 "/>
   <polygon class="fil8" points="27.47,18.58 28.4,18.59 28.4,17.93 27.47,17.94 "/>
   <path class="fil4" d="M28 19.86c0.37,0 1.01,0.12 1.03,-0.3 0.02,-0.47 -0.66,-0.34 -1.03,-0.34 0.1,0.32 0.1,0.32 -0,0.64z"/>
   <path class="fil4" d="M23.24 14.09l-0.02 -0.64c-0.48,0.04 -0.76,0.27 -0.9,0.64l0.92 0z"/>
   <path class="fil4" d="M14.25 14.09l-0.02 -0.64c-0.48,0.04 -0.76,0.27 -0.9,0.64l0.92 0z"/>
   <path class="fil8" d="M14.25 14.09l0.88 0c-0.13,-0.36 -0.43,-0.62 -0.9,-0.65l0.02 0.64z"/>
   <path class="fil8" d="M23.24 14.09l0.88 0c-0.13,-0.36 -0.43,-0.62 -0.9,-0.65l0.02 0.64z"/>
  </g>
 </g>
</svg>
