<?xml version="1.0" encoding="UTF-8"?>
<!DOCTYPE svg PUBLIC "-//W3C//DTD SVG 1.1//EN" "http://www.w3.org/Graphics/SVG/1.1/DTD/svg11.dtd">
<!-- Creator: CorelDRAW -->
<svg xmlns="http://www.w3.org/2000/svg" xml:space="preserve" width="33.8828mm" height="44.1789mm" version="1.1" style="shape-rendering:geometricPrecision; text-rendering:geometricPrecision; image-rendering:optimizeQuality; fill-rule:evenodd; clip-rule:evenodd"
viewBox="0 0 36.69 47.84"
 xmlns:xlink="http://www.w3.org/1999/xlink"
 xmlns:xodm="http://www.corel.com/coreldraw/odm/2003">
 <defs>
  <style type="text/css">
   <![CDATA[
    .str1 {stroke:#FEFEFE;stroke-width:0.22;stroke-miterlimit:22.9256}
    .str0 {stroke:#007BFF;stroke-width:0.22;stroke-miterlimit:22.9256}
    .fil1 {fill:#FEFEFE}
    .fil0 {fill:#007BFF}
    .fil2 {fill:#242222}
    .fil7 {fill:#575D63}
    .fil4 {fill:#837683}
    .fil5 {fill:#8AC9FE}
    .fil3 {fill:#9DABB9}
    .fil6 {fill:#D6EBFE}
   ]]>
  </style>
 </defs>
 <g id="Camada_x0020_1">
  <metadata id="CorelCorpID_0Corel-Layer"/>
  <path class="fil0 str0" d="M0.11 17.69l0 1.4c0,4.02 1.73,7.68 3.88,10.54l13.28 17.78c0.15,0.2 0.22,0.29 0.38,0.33l1.34 0c0.28,0 0.42,-0.34 0.69,-0.7 0.24,-0.32 0.4,-0.54 0.64,-0.85l11.15 -14.89c1.9,-2.53 3.15,-4.1 4.23,-7.3 1.07,-3.19 1.15,-6.85 0.33,-10.12 -0.39,-1.56 -0.6,-1.86 -1.15,-3.22 -0.4,-0.99 -1.02,-1.89 -1.6,-2.77 -1.03,-1.56 -2.86,-3.39 -4.41,-4.43 -3.62,-2.42 -6.4,-3.33 -11.18,-3.33 -1.36,0 -2.76,0.27 -3.83,0.54 -5.21,1.31 -9.78,5.02 -12.04,9.91 -0.83,1.8 -1.7,4.55 -1.7,7.13z"/>
  <circle class="fil1 str1" cx="18.34" cy="18.14" r="12.7"/>
  <g id="_1631192204032">
   <path class="fil2" d="M11.2 25.58l4.13 0 0.01 0.81 -4.14 0.01 -0.01 -0.83zm2.78 -1.58l0.01 0.96 -0.95 0 0.94 -0.96zm-1.43 0.51l-0.01 -2.64 1.34 1.32 -1.33 1.31zm0.13 -3.39l1.3 -1.31 0.01 2.6 -1.3 -1.29zm-0.13 -0.76l-0.01 -2.64 1.34 1.32 -1.33 1.31zm0.13 -3.39l1.3 -1.31 0.01 2.6 -1.3 -1.29zm7.37 -1.92l1.09 0.01 0 1.07 -0.14 0.01 -0.8 0 -0.14 -0.01 0 -1.08zm-7.5 1.16l-0.01 -2.64 1.34 1.32 -1.33 1.31zm0.44 -3.09l1 -0.01 0 0.99 -1 -0.98zm-2.41 -1.74c0,0.01 0.01,0.02 0.01,0.03 0,0.01 0.01,0.02 0.01,0.03 0,0.01 0,0.02 0.01,0.03l-0.02 1.48c-0.11,0.01 -1.42,0.05 -1.55,-0.02l-0 -1.54 1.54 -0.01zm10.1 0.58c0.12,0.1 0.2,0.18 0.32,0.27 0.08,0.06 0.25,0.2 0.3,0.27l-1.14 0 0.52 -0.54zm-2.57 0.02c0.09,0.06 0.16,0.14 0.25,0.23 0.1,0.1 0.2,0.15 0.24,0.3l-0.99 0 0.5 -0.52zm-2.56 -0.01l0.54 0.52 -1 0.01c0.06,-0.21 0.34,-0.36 0.46,-0.53zm-2.52 0.03l0.51 0.5 -1 0.01 0.49 -0.5zm5.87 -0.13l0.96 -0.01 -0.49 0.5 -0.47 -0.5zm-2.55 0l1 -0.01 -0.49 0.5 -0.51 -0.5zm-2.51 -0l0.96 -0.01 -0.49 0.5 -0.47 -0.5zm-2.32 -0.01l0.72 0 -0.45 0.47c-0.05,-0.15 -0.2,-0.33 -0.28,-0.47zm3.12 -2.59l3.97 1.89c0.07,0.05 0.03,0.02 0.07,0.05l-4.04 0 0 -1.94zm-1.03 -0.53l0.38 0 0 2.48 -1.14 0 0.52 -1.88c0.04,-0.12 0.06,-0.23 0.09,-0.33 0.04,-0.13 0.02,-0.26 0.16,-0.26zm-1.41 2.48l-0.99 0c0,-0.21 0.01,-0.18 -0.08,-0.34l1.45 -1.18c0.07,0.05 0.02,0.08 -0.07,0.39l-0.31 1.14zm-3.77 -0.19l0 2.25c0,0.2 0.16,0.3 0.34,0.3l2.1 0c0.29,0 0.34,-0.24 0.34,-0.46l0.72 0 0 11.85c-1.61,0 -1.33,-0.27 -1.33,1.75 0,0.18 0.12,0.3 0.3,0.3l4.76 0c0.23,0 0.3,-0.15 0.3,-0.38l0 -1.33c0,-0.48 -0.7,-0.34 -1.33,-0.34l0 -11.85 5.64 0 0 1.3c-1.03,0 -0.84,-0.11 -0.84,2.02 0,0.23 0.18,0.34 0.42,0.34l1.49 0c0.24,0 0.42,-0.11 0.42,-0.34l0 -1.68c0,-0.41 -0.5,-0.34 -0.84,-0.34l0 -1.3 1.26 0c0.18,0 0.3,-0.12 0.3,-0.3 0,-0.25 -0.51,-0.58 -0.79,-0.81l-0.87 -0.73c-0.23,-0.13 -0.47,-0 -0.71,-0.09 -0.17,-0.06 -0.35,-0.19 -0.54,-0.26 -0.55,-0.23 -1.57,-0.78 -2.17,-1.03 -0.38,-0.16 -0.68,-0.36 -1.08,-0.52l-1.62 -0.78c-0.17,-0.13 -0.01,-0.46 -0.38,-0.46l-1.07 0c-0.38,0 -0.24,0.35 -0.41,0.55l-2.4 1.94c-0.11,0.09 -0.15,0.14 -0.35,0.15 -0.44,0.01 -1.68,-0.16 -1.68,0.26z"/>
   <path class="fil2" d="M18.08 23.74l8.64 0 0 2.66 -8.64 -0.01 0 -2.65zm2.2 -5.44l6.43 0 0 4.82 -6.44 0 0.01 -4.82zm2.45 -4.13l3.98 0.01 0 3.51 -3.99 -0.02 0.01 -3.51zm0.92 -3.8l2.15 0 0 3.19 -2.16 -0.01 0.01 -3.19zm-0.62 -0.31l0 3.51c-0.48,0 -0.91,-0.1 -0.91,0.34l0 3.77 -2.13 0c-0.19,0 -0.34,0.15 -0.34,0.34l0 5.11 -1.87 0c-0.18,0 -0.3,0.12 -0.3,0.3l0 3.28c0,0.18 0.12,0.3 0.3,0.3l9.26 0c0.18,0 0.3,-0.12 0.3,-0.3l0 -12.84c0,-0.4 -0.46,-0.3 -0.91,-0.3l0 -3.51c0,-0.18 -0.12,-0.3 -0.3,-0.3l-2.78 0c-0.18,0 -0.3,0.12 -0.3,0.3z"/>
   <polygon class="fil3" points="18.08,26.4 26.71,26.41 26.71,23.75 18.08,23.74 "/>
   <path class="fil2" d="M24.76 21.03l0.78 -0c0.07,0.12 0.06,0.87 0,0.97l-0.85 0 -0.1 -0.01 0 -0.96 0.17 0zm-1.75 -0.01c0.14,-0.03 0.34,-0.01 0.5,-0.01 0.13,-0 0.39,-0.04 0.45,0.04l0 0.95 -0.96 0.02c-0.03,-0.03 -0.06,0.05 -0.05,-0.25l-0 -0.54c0,-0.2 0.01,-0.17 0.06,-0.21zm-1.59 0.02c0.08,-0.06 0.09,-0.04 0.22,-0.04 0.09,0 0.18,0 0.27,0 0.15,-0 0.36,-0.01 0.46,0.03 0.03,0.04 0.02,-0.06 0.04,0.11l-0 0.76c-0.02,0.09 0.02,0.04 -0.04,0.08l-0.08 -0 -0.86 0 0 -0.95zm4.12 -1.61c0.08,0.17 0.05,0.76 0.02,0.98 -0.16,0.04 -0.35,0.02 -0.52,0.02 -0.24,0 -0.4,0.03 -0.45,-0.07l0.01 -0.93 0.95 0zm-4.12 0.03c0.12,-0.1 0.78,-0.04 0.93,-0.03 0.07,0.05 0.04,-0 0.07,0.1l-0.01 0.87c-0.19,0.05 -0.32,0.05 -0.52,0.05 -0.21,-0 -0.4,0.04 -0.47,-0.06l0.01 -0.93zm1.62 -0.03l0.93 0 0.01 0.95c-0.09,0.08 -0.74,0.06 -0.88,0.04l-0.09 -0.03c-0.04,-0.12 -0.02,-0.34 -0.02,-0.51 -0,-0.09 -0.01,-0.19 -0,-0.27 0,-0.15 -0.03,-0.14 0.06,-0.18zm-2 -0.6c-0.32,0.09 -0.23,0.51 -0.23,0.89l-0 2.29c-0,0.52 0.05,0.58 0.57,0.58 0.58,-0 4.35,0.04 4.56,-0.02 0.31,-0.08 0.22,-0.58 0.22,-0.91l0 -2.29c0,-0.54 -0.07,-0.57 -0.59,-0.57 -0.54,0 -4.36,-0.03 -4.54,0.02z"/>
   <path class="fil3" d="M21.04 18.85c0.18,-0.05 4,-0.02 4.54,-0.02 0.52,-0 0.6,0.03 0.59,0.57l-0 2.29c0,0.32 0.09,0.83 -0.22,0.91 -0.21,0.05 -3.99,0.01 -4.56,0.02 -0.52,0 -0.58,-0.06 -0.57,-0.58l0 -2.29c0,-0.38 -0.1,-0.8 0.23,-0.89zm-0.77 4.28l6.44 -0 -0 -4.82 -6.43 -0 -0.01 4.82z"/>
   <path class="fil4" d="M23.05 16.69c-0.04,-0.23 -0.01,-1.05 -0.01,-1.34 0.01,-0.49 0.18,-0.41 0.9,-0.41 0.44,0 0.89,0 1.33,0 1.29,0 1.16,-0.22 1.14,1.56 -0.01,0.56 -0.4,0.43 -0.91,0.43 -0.44,-0 -0.89,0 -1.33,0 -0.35,0 -1.05,0.12 -1.12,-0.24zm-0.32 0.99l3.99 0.02 -0 -3.51 -3.98 -0.01 -0.01 3.51z"/>
   <polygon class="fil3" points="23.64,13.57 25.8,13.58 25.8,10.38 23.65,10.38 "/>
   <path class="fil2" d="M24.4 15.55c0.03,0.04 0.02,0 0.04,0.08l-0.02 0.71c-0.14,0.02 -0.27,0.01 -0.4,0.02 -0.3,0 -0.33,0.04 -0.37,-0.06l0 -0.74 0.76 -0.01zm0.64 0.01l0.76 -0 0.01 0.77c-0.1,0.08 -0.24,0.05 -0.4,0.05 -0.1,0 -0.33,0.03 -0.4,-0.05l0.02 -0.77zm-2 1.14c0.07,0.36 0.76,0.24 1.12,0.24 0.44,0 0.89,-0 1.33,0 0.51,0 0.91,0.13 0.91,-0.43 0.02,-1.77 0.15,-1.56 -1.14,-1.56 -0.44,0 -0.89,0 -1.33,0 -0.72,-0 -0.89,-0.08 -0.9,0.41 -0,0.28 -0.03,1.11 0.01,1.34z"/>
   <polygon class="fil4" points="11.21,26.41 15.35,26.39 15.34,25.58 11.2,25.58 "/>
   <polygon class="fil5" points="9.04,12.93 10.56,12.93 10.58,11.38 9.04,11.39 "/>
   <polygon class="fil4" points="20.06,16.12 20.2,16.13 21,16.13 21.15,16.12 21.15,15.06 20.06,15.05 "/>
   <polygon class="fil6" points="23.01,22.01 23.97,21.99 23.97,21.04 23.01,21.02 "/>
   <polygon class="fil6" points="23.01,20.4 23.98,20.4 23.97,19.45 23.04,19.44 "/>
   <path class="fil6" d="M22.28 21.99c0,-0.29 0.06,-0.74 -0.05,-0.95l-0.81 0 -0 0.95 0.86 -0z"/>
   <path class="fil6" d="M24.69 22l0.85 -0 -0 -0.97 -0.78 0c-0.11,0.24 -0.07,0.65 -0.07,0.96z"/>
   <path class="fil6" d="M21.41 20.4l0.83 -0.01c0.07,-0.21 0.04,-0.65 0.04,-0.92l-0.86 0 -0.01 0.93z"/>
   <path class="fil6" d="M24.74 20.38l0.79 0.02 0 -0.94c-0.26,0 -0.59,-0.05 -0.83,0.03 -0.06,0.23 -0.06,0.74 0.03,0.9z"/>
   <polygon class="fil6" points="25.02,16.32 25.82,16.32 25.81,15.55 25.04,15.55 "/>
   <polygon class="fil6" points="23.64,16.3 24.4,16.31 24.4,15.55 23.64,15.55 "/>
   <path class="fil3" d="M22.24 20.39l0.13 0 -0.02 -0.95c-0.15,-0.02 -0.81,-0.07 -0.93,0.03l0.86 -0c0,0.28 0.03,0.71 -0.04,0.92z"/>
   <path class="fil7" d="M22.24 20.39l-0.83 0.01c0.07,0.1 0.26,0.06 0.47,0.06 0.2,0 0.33,0 0.52,-0.05l0.01 -0.87c-0.02,-0.11 0.01,-0.05 -0.07,-0.1l0.02 0.95 -0.13 -0z"/>
   <path class="fil3" d="M24.59 20.37l0.15 0.01c-0.09,-0.16 -0.09,-0.67 -0.03,-0.9 0.23,-0.07 0.57,-0.03 0.83,-0.03l0 -0.02 -0.95 -0 -0.01 0.93z"/>
   <path class="fil3" d="M24.69 22c0,-0.31 -0.04,-0.73 0.07,-0.96l-0.17 -0 0 0.96 0.1 0.01z"/>
   <path class="fil4" d="M9.04 12.93c0.13,0.07 1.44,0.03 1.55,0.02l0.02 -1.48c-0,-0.01 -0,-0.02 -0.01,-0.03 -0,-0.01 -0.01,-0.02 -0.01,-0.03 -0,-0.01 -0.01,-0.02 -0.01,-0.03l-0.02 1.54 -1.52 0z"/>
   <path class="fil4" d="M24.74 20.38l-0.15 -0.01c0.05,0.1 0.21,0.07 0.45,0.07 0.17,0 0.36,0.02 0.52,-0.02 0.03,-0.21 0.06,-0.81 -0.02,-0.98l-0 0.02 -0 0.94 -0.79 -0.02z"/>
   <path class="fil3" d="M22.28 21.99l0.08 0 0 -0.96 -0.14 0c0.11,0.21 0.05,0.66 0.05,0.95z"/>
   <path class="fil4" d="M23.01 20.4l0.09 0.03c0.14,0.02 0.79,0.04 0.88,-0.04l-0.97 0.01 0.03 -0.96c-0.09,0.04 -0.06,0.03 -0.06,0.18 -0,0.08 0,0.18 0,0.27 0,0.17 -0.02,0.39 0.02,0.51z"/>
   <path class="fil7" d="M23.01 22.01l0 -0.99 0.96 0.02c-0.06,-0.08 -0.33,-0.04 -0.45,-0.04 -0.16,0 -0.36,-0.02 -0.5,0.01 -0.04,0.03 -0.05,0 -0.06,0.21l0 0.54c-0,0.29 0.03,0.21 0.05,0.25z"/>
   <path class="fil7" d="M22.23 21.04l0.14 -0 -0 0.96c0.06,-0.05 0.03,0.01 0.04,-0.08l0 -0.76c-0.02,-0.17 -0.01,-0.07 -0.04,-0.11 -0.1,-0.05 -0.31,-0.04 -0.46,-0.03 -0.09,0 -0.18,0 -0.27,0 -0.13,-0 -0.15,-0.02 -0.22,0.04l0.81 -0z"/>
   <path class="fil4" d="M23.64 16.3c0.05,0.1 0.07,0.06 0.37,0.06 0.14,-0 0.27,0 0.4,-0.02l0.02 -0.71c-0.02,-0.08 -0.01,-0.05 -0.04,-0.08l0 0.77 -0.76 -0.02z"/>
   <path class="fil7" d="M25.02 16.32c0.07,0.08 0.29,0.05 0.4,0.05 0.16,-0 0.3,0.03 0.4,-0.05l-0.8 -0 0.02 -0.77 -0.02 0.77z"/>
   <path class="fil4" d="M25.54 22c0.06,-0.1 0.07,-0.84 -0,-0.97l0 0.97z"/>
  </g>
 </g>
</svg>
