<?xml version="1.0" encoding="UTF-8"?>
<!DOCTYPE svg PUBLIC "-//W3C//DTD SVG 1.1//EN" "http://www.w3.org/Graphics/SVG/1.1/DTD/svg11.dtd">
<!-- Creator: CorelDRAW -->
<svg xmlns="http://www.w3.org/2000/svg" xml:space="preserve" width="33.8828mm" height="44.1789mm" version="1.1" style="shape-rendering:geometricPrecision; text-rendering:geometricPrecision; image-rendering:optimizeQuality; fill-rule:evenodd; clip-rule:evenodd"
viewBox="0 0 35.87 46.77"
 xmlns:xlink="http://www.w3.org/1999/xlink"
 xmlns:xodm="http://www.corel.com/coreldraw/odm/2003">
 <defs>
  <style type="text/css">
   <![CDATA[
    .str1 {stroke:#FEFEFE;stroke-width:0.21;stroke-miterlimit:22.9256}
    .str0 {stroke:#6C757D;stroke-width:0.21;stroke-miterlimit:22.9256}
    .fil1 {fill:#FEFEFE}
    .fil2 {fill:black}
    .fil7 {fill:#46638B}
    .fil0 {fill:#6C757D}
    .fil3 {fill:#7FB4FD}
    .fil6 {fill:#88DE8E}
    .fil5 {fill:#C9E458}
    .fil4 {fill:#F0D1BC}
   ]]>
  </style>
 </defs>
 <g id="Camada_x0020_1">
  <metadata id="CorelCorpID_0Corel-Layer"/>
  <path class="fil0 str0" d="M0.11 17.29l0 1.36c0,3.93 1.69,7.51 3.79,10.3l12.99 17.39c0.15,0.2 0.22,0.29 0.37,0.32l1.31 0c0.28,0 0.41,-0.34 0.68,-0.69 0.23,-0.31 0.39,-0.53 0.62,-0.83l10.9 -14.56c1.86,-2.48 3.08,-4.01 4.14,-7.14 1.05,-3.12 1.13,-6.69 0.33,-9.9 -0.38,-1.52 -0.58,-1.82 -1.12,-3.15 -0.39,-0.97 -1,-1.85 -1.57,-2.71 -1.01,-1.52 -2.8,-3.32 -4.31,-4.33 -3.54,-2.37 -6.25,-3.25 -10.93,-3.25 -1.33,0 -2.7,0.26 -3.75,0.53 -5.1,1.28 -9.56,4.91 -11.77,9.69 -0.82,1.76 -1.67,4.45 -1.67,6.97z"/>
  <circle class="fil1 str1" cx="17.94" cy="17.74" r="12.41"/>
  <g id="_1631685196912">
   <path class="fil2" d="M12.93 21.24c-0.36,-0.45 -1.05,-0.69 -1.64,-0.49 -0.24,0.08 -0.31,0.18 -0.49,0.26 0.1,-0.81 0.71,-1.94 1.18,-2.63 0.12,-0.17 0.33,-0.11 0.53,-0.11 0.22,0 0.45,-0.01 0.67,0 0.79,0.03 1.25,0.81 0.84,1.48 -0.27,0.44 -0.69,0.39 -1.1,1.49zm15.07 -8.75l0 0.31c-0,0 -0,0.01 -0,0.01 -0.02,0.32 -0.19,0.64 -0.36,0.9 -0.1,0.15 -0.23,0.21 -0.27,0.36 -0.05,0.18 -0.04,0.27 -0.13,0.46 -0.27,0.57 -0.64,0.99 -1.23,1.24 -0.38,0.16 -0.63,0.19 -1.04,0.19 -0.37,-0 -0.81,-0.23 -0.97,-0.23l-0.68 0.84c0.12,0.12 0.2,0.17 0.32,0.28l0.78 0.91c0.44,0.56 0.67,1.13 0.85,1.38 0.06,-0.57 -0.08,-0.89 0.25,-1.41 0.2,-0.32 0.63,-0.58 1.02,-0.59 0.45,-0.01 0.87,0.12 1.15,0.47 0.25,0.32 0.3,0.55 0.31,0.87l0 0.44 0 1.87c-0.03,0.84 -0.14,1.66 -0.51,2.49 -0.14,0.31 -0.32,0.94 -0.83,0.71 -0.31,-0.35 -0.16,-0.45 0.01,-0.82 0.68,-1.48 0.54,-2.72 0.55,-4.29 0,-0.34 0.05,-0.7 -0.3,-0.88 -0.3,-0.15 -0.68,-0.03 -0.78,0.31 -0.07,0.21 -0.03,0.9 -0.03,1.16 0,1.62 0.2,2.58 -1.02,3.8 -0.4,0.4 -0.8,0.8 -1.2,1.2 -0.27,0.27 -0.93,1.12 -1.32,1.03 -0.4,-0.08 -0.35,-0.48 -0.1,-0.73 0.2,-0.21 0.4,-0.4 0.61,-0.61 0.4,-0.4 0.8,-0.8 1.2,-1.2 0.18,-0.18 0.48,-0.42 0.52,-0.7 0.05,-0.32 -0.13,-0.65 -0.44,-0.75 -0.57,-0.19 -1.07,0.53 -1.43,0.89 -0.21,0.21 -1.03,1.11 -1.25,1.15 -0.57,0.13 -0.99,-0.02 -1.8,0.59 -0.98,0.73 -1.51,2.04 -1.53,3.26 -0,0.22 -0.14,0.35 -0.29,0.39l-0.2 0c-0.15,-0.04 -0.29,-0.17 -0.29,-0.39 -0.03,-1.45 -0.74,-2.94 -2.08,-3.58 -0.41,-0.2 -0.71,-0.22 -1.15,-0.25 -0.33,-0.03 -0.59,-0.4 -0.81,-0.62 -0.28,-0.28 -1.15,-1.22 -1.41,-1.38 -0.34,-0.2 -0.78,-0.07 -0.95,0.27 -0.22,0.44 0.07,0.73 0.33,0.99 0.19,0.19 2.04,2.01 2.1,2.14 0.2,0.43 -0.32,0.71 -0.66,0.42 -0.43,-0.37 -0.98,-0.97 -1.4,-1.39 -1.51,-1.51 -1.75,-1.62 -1.75,-3.9 0,-0.47 0,-0.94 0,-1.41 0,-0.43 -0.15,-0.83 -0.67,-0.73 -0.49,0.09 -0.44,0.59 -0.44,0.97 0,1.35 -0.1,2.59 0.37,3.84 0.21,0.55 0.66,1.36 1.07,1.76l2.12 2.12c0.12,0.12 0.24,0.24 0.35,0.35 0.21,0.21 0.14,0.21 0.26,0.4 -0.09,0.24 -0.2,0.37 -0.31,0.41l-0.18 0c-0.27,-0.08 -0.58,-0.47 -0.9,-0.81l-1.64 -1.62c-0.11,-0.14 -0.17,-0.2 -0.3,-0.33 -0.62,-0.63 -1.12,-1.7 -1.38,-2.51 -0.16,-0.49 -0.22,-1.1 -0.24,-1.74l0 -1.91 0 -0.52c0.01,-0.18 0.06,-0.34 0.2,-0.58 0.35,-0.61 1.2,-0.82 1.81,-0.47 0.86,0.49 0.66,1.3 0.72,1.84 0.11,-0.15 0.29,-0.53 0.41,-0.72 0.13,-0.22 0.3,-0.49 0.46,-0.68l0.78 -0.9c0.11,-0.1 0.18,-0.14 0.3,-0.26l-0.68 -0.84c-0.14,-0.05 -0.94,0.52 -2.03,0.03 -1.18,-0.53 -1.24,-1.49 -1.36,-1.75 -0.02,-0.05 -0.21,-0.25 -0.28,-0.35 -0.19,-0.29 -0.3,-0.6 -0.33,-0.89l0 -0.37c0.13,-1.19 1.43,-2.11 2.71,-1.47 0.14,0.07 0.27,0.13 0.38,0.25 0.39,0.37 0.49,0.05 1.23,0.62 0.48,0.37 0.83,0.98 0.9,1.58 0.11,1.03 -0.31,1.34 -0.59,1.85l0.67 0.82c0.09,-0.03 0.8,-0.47 0.94,-0.56 0.83,-0.51 2.47,-0.94 3.43,-0.94l0 -1.06c-1,0.41 -1.74,0.47 -2.65,-0.22 -1.27,-0.96 -1.05,-2.87 -0.15,-3.6 0.19,-0.15 0.3,-0.24 0.52,-0.35 0.33,-0.16 0.29,-0.08 0.46,-0.41 0.87,-1.67 3.61,-1.63 4.44,0.03 0.17,0.34 0.17,0.22 0.48,0.39 0.58,0.31 0.96,0.79 1.15,1.44 0.27,0.91 -0.08,1.95 -0.84,2.51 -0.9,0.67 -1.64,0.6 -2.63,0.2l0 1.06c0.84,0 1.72,0.24 2.45,0.5 0.97,0.34 1.66,0.91 1.93,1.01l0.64 -0.84c-0.14,-0.27 -0.33,-0.45 -0.46,-0.79 -0.11,-0.31 -0.15,-0.77 -0.12,-1.09 0.06,-0.58 0.46,-1.2 0.92,-1.55 0.24,-0.18 0.56,-0.34 0.85,-0.4 0.28,-0.06 0.45,-0.3 0.76,-0.46 1.14,-0.57 2.59,0.16 2.69,1.57zm-2.93 8.51c-0.22,-0.08 -0.6,-0.49 -1.37,-0.26 -0.6,0.18 -0.66,0.53 -1.04,0.77 -0.65,-0.65 -1.61,-0.82 -1.98,-1.77 -0.37,-0.95 0.05,-2.06 0.97,-2.5 0.23,-0.11 0.51,-0.18 0.76,-0.19 0.34,-0.02 0.37,0.14 0.6,0.35 0.28,0.26 0.67,0.69 0.89,1 0.41,0.6 1.11,1.89 1.16,2.6zm-3.19 0.9l0.23 0.19c-0.09,0.14 -0.27,0.29 -0.39,0.41 -0.17,0.17 -0.22,0.3 -0.49,0.3 -0.75,0 -1.51,0.44 -2.07,0.88 -0.25,0.19 -0.48,0.51 -0.67,0.78 -0.27,0.37 -0.5,0.85 -0.56,0.93 -0.15,-0.19 -0.34,-0.63 -0.54,-0.91 -0.2,-0.28 -0.44,-0.6 -0.69,-0.8 -0.56,-0.43 -1.31,-0.88 -2.07,-0.88 -0.27,-0 -0.38,-0.2 -0.56,-0.38 -0.14,-0.14 -0.34,-0.32 -0.46,-0.48 0,-0.11 -0.01,-0.19 0.05,-0.26 0,-0.27 0.09,-0.42 0.23,-0.64 0.18,-0.3 0.18,-0.26 0.45,-0.45 0.32,-0.23 0.57,-0.78 0.61,-1.2 0.08,-0.95 -0.73,-1.94 -1.69,-1.88l-0.5 -0 0.27 -0.28c0.34,-0.39 1.22,-0.92 1.7,-1.15 0.71,-0.34 1.44,-0.57 2.22,-0.67 1.6,-0.22 3.35,0.13 4.72,0.97 -0.1,0.09 -2.07,0.69 -1.92,2.85 0.13,1.84 1.73,2.29 2.12,2.69zm-13.21 -9.16c-0.12,-1.09 1.15,-1.66 1.97,-0.77 0.21,0.23 0.74,0.09 1.21,0.6 0.37,0.4 0.53,0.8 0.43,1.36 -0.31,1.64 -2.66,1.63 -3,0.03 -0.1,-0.47 -0,-0.27 -0.32,-0.59 -0.14,-0.15 -0.28,-0.43 -0.3,-0.63zm18.52 0.04c-0.04,0.21 -0.16,0.47 -0.31,0.61 -0.32,0.3 -0.2,0.18 -0.31,0.6 -0.38,1.61 -2.75,1.55 -3,-0.14 -0.08,-0.53 0.11,-0.94 0.46,-1.31 0.49,-0.5 0.98,-0.32 1.23,-0.62 0.72,-0.88 2.13,-0.23 1.93,0.85zm-9.97 -0.05c-1.39,0.92 -3.08,-0.72 -2.19,-2.16 0.16,-0.25 0.44,-0.5 0.72,-0.61 0.65,-0.26 0.33,-0.12 0.66,-0.64 0.38,-0.61 1.02,-0.93 1.75,-0.85 0.76,0.09 1.16,0.52 1.47,1.17 0.18,0.38 1.04,0.26 1.38,1.25 0.24,0.72 -0.03,1.42 -0.64,1.83 -0.7,0.48 -1.69,0.19 -1.94,-0.2 0.18,-0.18 0.76,-0.68 0.8,-0.91 0.04,-0.24 -0.13,-0.47 -0.38,-0.47 -0.23,-0 -0.35,0.2 -0.5,0.32 -0.07,-0.54 0.2,-2.01 -0.57,-1.65 -0.44,0.21 -0.14,1.25 -0.24,2.05 -0.17,-0.12 -0.4,-0.4 -0.57,-0.56 -0.25,-0.24 -0.62,-0.2 -0.7,0.14 -0.11,0.46 0.83,0.94 0.96,1.27z"/>
   <path class="fil3" d="M19.07 21.19c-0.07,0.26 -0.47,0.98 -0.63,1.21 -0.55,0.8 -1.75,0.93 -2.46,0.03 -0.36,-0.46 -0.32,-1.01 -0.31,-1.56 0.03,-0.99 0.85,-1.85 1.87,-1.81 1.09,0.04 1.79,1.09 1.53,2.12zm-6.03 -3.97l-0.21 0.23c0.15,0.02 0.32,-0.01 0.43,0.05 0.96,-0.05 1.77,0.94 1.69,1.88 -0.03,0.42 -0.29,0.97 -0.61,1.2 -0.27,0.2 -0.27,0.15 -0.45,0.45 -0.14,0.22 -0.23,0.37 -0.23,0.64 -0.03,0.37 -0.08,0.21 0.43,0.72 0.08,0.08 0.15,0.15 0.24,0.24 0.17,0.18 0.14,0.07 0.31,0.17 0.76,-0 1.51,0.44 2.07,0.88 0.25,0.2 0.49,0.52 0.69,0.8 0.21,0.28 0.4,0.73 0.54,0.91 0.06,-0.08 0.29,-0.56 0.56,-0.93 0.19,-0.27 0.43,-0.59 0.67,-0.78 0.56,-0.44 1.31,-0.88 2.07,-0.88 0.24,-0.13 0.05,0.1 0.45,-0.3 0.12,-0.12 0.3,-0.26 0.38,-0.4l-0.18 -0.19c-0.4,-0.41 -2,-0.85 -2.12,-2.69 -0.15,-2.16 1.83,-2.76 1.92,-2.85 -1.37,-0.84 -3.11,-1.18 -4.72,-0.97 -0.78,0.11 -1.52,0.33 -2.22,0.67 -0.48,0.23 -1.36,0.77 -1.7,1.15z"/>
   <path class="fil4" d="M18.33 27.4l4.72 -0.01c0.16,-0.25 0.09,-0.22 0.34,-0.47 0.15,-0.15 0.29,-0.29 0.43,-0.43 0.32,-0.32 0.54,-0.74 1.04,-0.47l0.68 -0.66c-0.08,-0.21 -0.21,-0.4 0.02,-0.6 0.21,-0.18 0.36,-0.09 0.56,0 0.18,-0.24 0.42,-0.51 0.55,-0.78 -0.31,-0.35 -0.16,-0.45 0.01,-0.82 0.68,-1.48 0.54,-2.72 0.55,-4.29 0,-0.34 0.05,-0.7 -0.3,-0.88 -0.3,-0.15 -0.68,-0.03 -0.78,0.31 -0.07,0.21 -0.03,0.9 -0.03,1.16 0,1.62 0.2,2.58 -1.02,3.8 -0.4,0.4 -0.8,0.8 -1.2,1.2 -0.27,0.27 -0.93,1.12 -1.32,1.03 -0.4,-0.08 -0.35,-0.48 -0.1,-0.73 0.2,-0.21 0.4,-0.4 0.61,-0.61 0.4,-0.4 0.8,-0.8 1.2,-1.2 0.18,-0.18 0.48,-0.42 0.52,-0.7 0.05,-0.32 -0.13,-0.65 -0.44,-0.75 -0.57,-0.19 -1.07,0.53 -1.43,0.89 -0.21,0.21 -1.03,1.11 -1.25,1.15 -0.57,0.13 -0.99,-0.02 -1.8,0.59 -0.98,0.73 -1.51,2.04 -1.53,3.26z"/>
   <path class="fil4" d="M12.83 27.38l4.72 0.01c-0.03,-1.45 -0.74,-2.94 -2.08,-3.58 -0.41,-0.2 -0.71,-0.22 -1.15,-0.25 -0.33,-0.03 -0.59,-0.4 -0.81,-0.62 -0.28,-0.28 -1.15,-1.22 -1.41,-1.38 -0.34,-0.2 -0.78,-0.07 -0.95,0.27 -0.22,0.44 0.07,0.73 0.33,0.99 0.19,0.19 2.04,2.01 2.1,2.14 0.2,0.43 -0.32,0.71 -0.66,0.42 -0.43,-0.37 -0.98,-0.97 -1.4,-1.39 -1.51,-1.51 -1.75,-1.62 -1.75,-3.9 0,-0.47 0,-0.94 0,-1.41 0,-0.43 -0.15,-0.83 -0.67,-0.73 -0.49,0.09 -0.44,0.59 -0.44,0.97 0,1.35 -0.1,2.59 0.37,3.84 0.21,0.55 0.66,1.36 1.07,1.76l2.12 2.12c0.12,0.12 0.24,0.24 0.35,0.35 0.21,0.21 0.14,0.21 0.26,0.4z"/>
   <path class="fil5" d="M17.22 12.73c-0.13,-0.34 -1.07,-0.81 -0.96,-1.27 0.08,-0.34 0.45,-0.38 0.7,-0.14 0.17,0.16 0.4,0.43 0.57,0.56 0.11,-0.79 -0.19,-1.84 0.24,-2.05 0.76,-0.36 0.5,1.12 0.57,1.65 0.15,-0.12 0.27,-0.32 0.5,-0.32 0.25,0 0.42,0.22 0.38,0.47 -0.04,0.22 -0.62,0.73 -0.8,0.91 0.25,0.39 1.24,0.68 1.94,0.2 0.61,-0.41 0.88,-1.12 0.64,-1.83 -0.34,-1 -1.2,-0.87 -1.38,-1.25 -0.31,-0.65 -0.71,-1.08 -1.47,-1.17 -0.72,-0.09 -1.36,0.24 -1.75,0.85 -0.33,0.52 -0.01,0.38 -0.66,0.64 -0.28,0.11 -0.57,0.36 -0.72,0.61 -0.89,1.44 0.81,3.07 2.19,2.16z"/>
   <path class="fil6" d="M25.07 21c-0.05,-0.71 -0.75,-2.01 -1.16,-2.6 -0.22,-0.31 -0.6,-0.74 -0.89,-1 -0.23,-0.21 -0.26,-0.37 -0.6,-0.35 -0.25,0.01 -0.54,0.08 -0.76,0.19 -0.92,0.44 -1.35,1.55 -0.97,2.5 0.37,0.95 1.33,1.12 1.98,1.77 0.38,-0.24 0.44,-0.59 1.04,-0.77 0.77,-0.23 1.15,0.19 1.37,0.26z"/>
   <path class="fil5" d="M27.19 12.78c0.2,-1.08 -1.21,-1.73 -1.93,-0.85 -0.25,0.3 -0.74,0.12 -1.23,0.62 -0.36,0.36 -0.54,0.78 -0.46,1.31 0.25,1.69 2.62,1.75 3,0.14 0.1,-0.42 -0.02,-0.3 0.31,-0.6 0.15,-0.14 0.27,-0.41 0.31,-0.61z"/>
   <path class="fil5" d="M8.67 12.74c0.02,0.21 0.15,0.49 0.3,0.63 0.31,0.32 0.22,0.12 0.32,0.59 0.34,1.6 2.69,1.61 3,-0.03 0.11,-0.56 -0.06,-0.97 -0.43,-1.36 -0.47,-0.51 -1,-0.36 -1.21,-0.6 -0.83,-0.9 -2.09,-0.32 -1.97,0.77z"/>
   <path class="fil2" d="M17.27 19.87c0.63,-0.15 1.18,0.4 1.07,1.04 -0.06,0.32 -0.54,1.16 -0.84,1.29 -0.28,0.12 -0.66,0.05 -0.85,-0.16 -0.21,-0.24 -0.19,-0.55 -0.19,-0.85 -0,-0.64 0.13,-1.15 0.81,-1.31zm1.81 1.31c0.26,-1.03 -0.44,-2.08 -1.53,-2.12 -1.02,-0.04 -1.84,0.81 -1.87,1.81 -0.02,0.55 -0.05,1.11 0.31,1.56 0.71,0.9 1.91,0.76 2.46,-0.03 0.16,-0.24 0.56,-0.95 0.63,-1.21z"/>
   <path class="fil6" d="M12.93 21.24c0.41,-1.1 0.83,-1.04 1.1,-1.49 0.41,-0.68 -0.05,-1.46 -0.84,-1.48 -0.22,-0.01 -0.45,-0 -0.67,-0 -0.21,-0 -0.42,-0.06 -0.53,0.11 -0.48,0.69 -1.08,1.83 -1.18,2.63 0.18,-0.08 0.25,-0.18 0.49,-0.26 0.59,-0.2 1.28,0.04 1.64,0.49z"/>
   <path class="fil6" d="M17.27 19.87c-0.68,0.16 -0.81,0.67 -0.81,1.31 0,0.31 -0.02,0.62 0.19,0.85 0.19,0.21 0.57,0.28 0.85,0.16 0.29,-0.13 0.78,-0.97 0.84,-1.29 0.12,-0.64 -0.44,-1.19 -1.07,-1.04z"/>
   <path class="fil2" d="M23.04 27.38c0.1,0.25 0.2,0.37 0.32,0.41l0.18 0c0.22,-0.06 0.45,-0.33 0.65,-0.54 0.18,-0.18 0.35,-0.35 0.53,-0.53 0.23,-0.23 0.34,-0.42 0.13,-0.71 -0.5,-0.27 -0.71,0.14 -1.04,0.47 -0.15,0.15 -0.29,0.29 -0.43,0.43 -0.25,0.25 -0.18,0.23 -0.34,0.47z"/>
   <path class="fil2" d="M25.53 25.35c0.16,0.05 0.07,0.1 0.3,0.08 0.12,-0.01 0.19,-0.04 0.27,-0.13 0.18,-0.19 0.12,-0.35 0.01,-0.55 -0.2,-0.09 -0.35,-0.19 -0.56,-0 -0.23,0.2 -0.1,0.39 -0.02,0.6z"/>
   <path class="fil7" d="M14.64 22.8c-0.17,-0.09 -0.14,0.01 -0.31,-0.17 -0.08,-0.08 -0.15,-0.16 -0.24,-0.24 -0.51,-0.51 -0.45,-0.35 -0.43,-0.72 -0.07,0.07 -0.05,0.15 -0.05,0.26 0.12,0.16 0.32,0.34 0.46,0.48 0.18,0.18 0.29,0.38 0.56,0.38z"/>
   <path class="fil7" d="M21.24 22.8c0.27,-0 0.31,-0.13 0.49,-0.3 0.12,-0.12 0.3,-0.27 0.39,-0.41l-0.23 -0.19 0.18 0.19c-0.09,0.14 -0.26,0.28 -0.38,0.4 -0.39,0.4 -0.2,0.17 -0.45,0.3z"/>
   <path class="fil7" d="M13.26 17.5c-0.12,-0.05 -0.28,-0.02 -0.43,-0.05l0.21 -0.23 -0.27 0.28 0.5 0z"/>
  </g>
 </g>
</svg>
