<?xml version="1.0" encoding="UTF-8"?>
<!DOCTYPE svg PUBLIC "-//W3C//DTD SVG 1.1//EN" "http://www.w3.org/Graphics/SVG/1.1/DTD/svg11.dtd">
<!-- Creator: CorelDRAW -->
<svg xmlns="http://www.w3.org/2000/svg" xml:space="preserve" width="33.8828mm" height="44.1789mm" version="1.1" style="shape-rendering:geometricPrecision; text-rendering:geometricPrecision; image-rendering:optimizeQuality; fill-rule:evenodd; clip-rule:evenodd"
viewBox="0 0 35.09 45.75"
 xmlns:xlink="http://www.w3.org/1999/xlink"
 xmlns:xodm="http://www.corel.com/coreldraw/odm/2003">
 <defs>
  <style type="text/css">
   <![CDATA[
    .str1 {stroke:#FEFEFE;stroke-width:0.21;stroke-miterlimit:22.9256}
    .str0 {stroke:#28A745;stroke-width:0.21;stroke-miterlimit:22.9256}
    .fil1 {fill:#FEFEFE}
    .fil4 {fill:black}
    .fil0 {fill:#28A745}
    .fil2 {fill:#FE636E}
    .fil3 {fill:#FEFEFE}
   ]]>
  </style>
 </defs>
 <g id="Camada_x0020_1">
  <metadata id="CorelCorpID_0Corel-Layer"/>
  <path class="fil0 str0" d="M0.1 16.92l0 1.33c0,3.85 1.66,7.34 3.71,10.08l12.7 17.01c0.14,0.2 0.21,0.28 0.36,0.31l1.28 0c0.27,0 0.4,-0.33 0.66,-0.67 0.23,-0.3 0.39,-0.51 0.61,-0.81l10.66 -14.24c1.82,-2.42 3.02,-3.92 4.05,-6.98 1.02,-3.05 1.1,-6.55 0.32,-9.68 -0.37,-1.49 -0.57,-1.78 -1.1,-3.08 -0.38,-0.94 -0.98,-1.81 -1.53,-2.65 -0.99,-1.49 -2.73,-3.24 -4.22,-4.23 -3.46,-2.31 -6.12,-3.18 -10.69,-3.18 -1.3,0 -2.64,0.26 -3.67,0.52 -4.99,1.25 -9.35,4.8 -11.52,9.48 -0.8,1.72 -1.63,4.36 -1.63,6.82z"/>
  <circle class="fil1 str1" cx="17.54" cy="17.35" r="12.14"/>
  <g id="_1631240553232">
   <path class="fil2" d="M15.89 20.43c-0.06,-0.04 -0.01,-0.02 -0.11,-0.05l-0.3 -0.02c-1.11,0.02 -1.87,0.17 -2.07,-0.66 -0.18,-0.76 -0.21,-2.22 0.43,-2.52 0.25,-0.12 1.2,-0.07 1.55,-0.07 0.61,0 0.51,0.18 0.51,-1.05 0,-1.09 -0.02,-1.56 1.63,-1.56 2.11,0 1.56,0.86 1.63,2.39 0.01,0.31 0.24,0.21 0.56,0.21 0.34,-0 1.25,-0.05 1.5,0.07 0.65,0.3 0.62,1.76 0.43,2.52 -0.27,1.13 -1.71,0.47 -2.41,0.69 -0.27,0.09 0.07,1.51 -0.16,2.03 -0.21,0.47 -0.92,0.55 -1.56,0.55 -0.64,0 -1.35,-0.08 -1.56,-0.55 -0.19,-0.42 0.03,-1.55 -0.09,-1.99zm-5.87 -9.88c-0.13,0.07 -0.27,0.12 -0.4,0.21 -0.13,0.08 -0.23,0.19 -0.38,0.23 0.15,0.52 -0.15,0.47 -0.9,1.33 -1.28,1.47 -1.67,3.67 -1,5.6 0.41,1.19 1.12,1.99 2.03,2.77l2.91 2.51c0.12,0.11 0.18,0.18 0.31,0.3 0.2,0.19 0.45,0.37 0.66,0.57 0.2,0.2 0.43,0.36 0.64,0.54 0.1,0.09 0.22,0.2 0.32,0.29l1.95 1.68c0.12,0.1 0.21,0.19 0.32,0.29 1.39,1.17 0.91,0.92 2.78,-0.59l2.93 -2.53c0.17,-0.12 0.31,-0.04 0.45,0.02 0.17,-0.07 0.21,-0.17 0.34,-0.28 0.15,-0.12 0.2,-0.15 0.32,-0.3 -0.19,-0.47 0.21,-0.6 0.43,-0.79l0.66 -0.6c1.38,-1.25 2.79,-2.01 3.43,-4.17 0.71,-2.39 -0.24,-4.89 -2.15,-6.3 -1.35,-1 -3.27,-1.38 -5.02,-0.87 -0.62,0.18 -1.3,0.52 -1.71,0.83 -0.25,0.18 -0.51,0.39 -0.69,0.57 -0.82,0.79 -1.1,0.27 -1.59,-0.12 -0.23,-0.19 -0.44,-0.37 -0.71,-0.55 -1.14,-0.76 -2.63,-1.1 -4.02,-0.89 -1.33,0.21 -1.5,0.69 -1.92,0.28z"/>
   <path class="fil3" d="M18.5 22.18c0.17,-1.5 -0.52,-2.47 1.14,-2.47 1.36,0 1.35,0.13 1.43,-0.34 0.07,-0.47 0.09,-1.17 -0.09,-1.58 -0.68,-0.15 -1.8,0.21 -2.24,-0.25 -0.46,-0.48 -0.04,-1.68 -0.25,-2.24 -0.5,-0.2 -1.38,-0.2 -1.88,-0 -0.2,0.56 0.21,1.76 -0.25,2.24 -0.44,0.46 -1.57,0.1 -2.24,0.25 -0.18,0.41 -0.19,1.53 -0.03,1.82 0.2,0.37 1.82,-0.2 2.29,0.33 0.36,0.4 0.14,1.6 0.21,2.24 0.59,0.17 1.34,0.17 1.92,-0z"/>
   <path class="fil4" d="M10.02 10.55c0.42,0.41 0.58,-0.07 1.92,-0.28 1.39,-0.21 2.89,0.13 4.02,0.89 0.27,0.18 0.48,0.36 0.71,0.55 0.48,0.4 0.76,0.92 1.59,0.12 0.18,-0.18 0.45,-0.39 0.69,-0.57 0.41,-0.3 1.1,-0.65 1.71,-0.83 1.75,-0.5 3.67,-0.12 5.02,0.87 1.91,1.41 2.86,3.91 2.15,6.3 -0.64,2.17 -2.05,2.92 -3.43,4.17l-0.66 0.6c-0.22,0.19 -0.62,0.32 -0.43,0.79 0.3,0.23 0.45,0.13 0.9,-0.32 0.12,-0.12 0.17,-0.14 0.28,-0.24 0.11,-0.1 0.14,-0.13 0.26,-0.22 0.11,-0.09 0.15,-0.16 0.27,-0.25 0.2,-0.16 0.38,-0.32 0.56,-0.49 0.69,-0.64 1.37,-1.05 2.03,-2.04 0.61,-0.92 0.9,-1.64 1.09,-2.97 0.01,-0.05 0.01,-0.09 0.02,-0.14l0 -1.17c-0.14,-1.26 -0.68,-2.47 -1.39,-3.36 -2.12,-2.65 -5.79,-3.21 -8.65,-1.34l-0.85 0.68c-0.44,0.43 -0.28,0.21 -1.01,-0.36 -1.77,-1.38 -4,-1.79 -6.17,-1.05 -0.6,0.2 -0.66,0.23 -0.63,0.64z"/>
   <path class="fil4" d="M22.65 23.76c-0.14,-0.07 -0.28,-0.14 -0.45,-0.02l-2.93 2.53c-1.87,1.51 -1.4,1.76 -2.78,0.59 -0.11,-0.1 -0.21,-0.19 -0.32,-0.29l-1.95 -1.68c-0.09,-0.09 -0.21,-0.21 -0.32,-0.29 -0.21,-0.18 -0.44,-0.34 -0.64,-0.54 -0.21,-0.2 -0.46,-0.38 -0.66,-0.57 -0.13,-0.12 -0.19,-0.19 -0.31,-0.3l-2.91 -2.51c-0.91,-0.78 -1.62,-1.58 -2.03,-2.77 -0.66,-1.92 -0.27,-4.13 1,-5.6 0.75,-0.86 1.06,-0.81 0.9,-1.33 -0.14,-0.09 -0.27,-0.15 -0.47,-0.03 -0.06,0.04 -0.1,0.09 -0.17,0.14 -0.09,0.08 -0.1,0.08 -0.19,0.16 -0.24,0.24 -0.41,0.42 -0.63,0.68 -0.88,1 -1.38,2.45 -1.43,3.9l0 0.45c0.02,0.57 0.11,1.14 0.29,1.66 0.24,0.71 0.48,1.16 0.86,1.72 0.41,0.6 1.01,1.17 1.57,1.62 0.13,0.1 0.21,0.19 0.35,0.31l1.03 0.89c0.07,0.06 0.09,0.09 0.16,0.15l1.92 1.66c0.12,0.12 0.22,0.18 0.35,0.31 0.12,0.11 0.2,0.16 0.33,0.28 0.12,0.12 0.22,0.18 0.35,0.31l1.38 1.2c0.48,0.41 1.83,1.64 2.13,1.76 0.89,0.34 1.35,-0.28 1.93,-0.77l3.3 -2.86c0.23,-0.2 0.61,-0.36 0.36,-0.76z"/>
   <path class="fil4" d="M18.5 22.18c-0.59,0.17 -1.33,0.17 -1.92,0 -0.07,-0.65 0.15,-1.84 -0.21,-2.24 -0.47,-0.53 -2.09,0.04 -2.29,-0.33 -0.16,-0.29 -0.15,-1.41 0.03,-1.82 0.68,-0.15 1.8,0.21 2.24,-0.25 0.46,-0.48 0.04,-1.68 0.25,-2.24 0.5,-0.2 1.38,-0.2 1.88,0 0.21,0.56 -0.21,1.77 0.25,2.24 0.44,0.46 1.57,0.1 2.24,0.25 0.18,0.42 0.17,1.12 0.09,1.58 -0.08,0.47 -0.07,0.35 -1.43,0.34 -1.65,-0 -0.97,0.97 -1.14,2.47zm-2.61 -1.75c0.12,0.44 -0.1,1.57 0.09,1.99 0.21,0.46 0.92,0.55 1.56,0.55 0.64,0 1.35,-0.08 1.56,-0.55 0.23,-0.52 -0.11,-1.94 0.16,-2.03 0.69,-0.23 2.13,0.43 2.41,-0.69 0.18,-0.76 0.21,-2.22 -0.43,-2.52 -0.25,-0.12 -1.16,-0.07 -1.5,-0.07 -0.32,0 -0.55,0.1 -0.56,-0.21 -0.07,-1.53 0.49,-2.39 -1.63,-2.39 -1.65,0 -1.63,0.47 -1.63,1.56 0,1.23 0.09,1.05 -0.51,1.05 -0.35,-0 -1.29,-0.05 -1.55,0.07 -0.65,0.3 -0.62,1.77 -0.43,2.52 0.2,0.84 0.96,0.68 2.07,0.66l0.3 0.02c0.09,0.03 0.05,0.01 0.11,0.05z"/>
  </g>
 </g>
</svg>
