<?xml version="1.0" encoding="UTF-8"?>
<!DOCTYPE svg PUBLIC "-//W3C//DTD SVG 1.1//EN" "http://www.w3.org/Graphics/SVG/1.1/DTD/svg11.dtd">
<!-- Creator: CorelDRAW -->
<svg xmlns="http://www.w3.org/2000/svg" xml:space="preserve" width="33.8828mm" height="44.1789mm" version="1.1" style="shape-rendering:geometricPrecision; text-rendering:geometricPrecision; image-rendering:optimizeQuality; fill-rule:evenodd; clip-rule:evenodd"
viewBox="0 0 34.3 44.72"
 xmlns:xlink="http://www.w3.org/1999/xlink"
 xmlns:xodm="http://www.corel.com/coreldraw/odm/2003">
 <defs>
  <style type="text/css">
   <![CDATA[
    .str1 {stroke:#FEFEFE;stroke-width:0.2;stroke-miterlimit:22.9256}
    .str0 {stroke:#343A40;stroke-width:0.2;stroke-miterlimit:22.9256}
    .fil1 {fill:#FEFEFE}
    .fil2 {fill:black}
    .fil6 {fill:#272B38}
    .fil3 {fill:#2C5771}
    .fil0 {fill:#343A40}
    .fil7 {fill:#E8A000}
    .fil5 {fill:#F2D2A5}
    .fil8 {fill:#FF6D3A}
    .fil4 {fill:#FFE6CE}
   ]]>
  </style>
 </defs>
 <g id="Camada_x0020_1">
  <metadata id="CorelCorpID_0Corel-Layer"/>
  <path class="fil0 str0" d="M0.1 16.53l0 1.3c0,3.76 1.62,7.18 3.63,9.85l12.42 16.62c0.14,0.19 0.21,0.27 0.35,0.31l1.25 0c0.26,0 0.39,-0.32 0.65,-0.66 0.22,-0.3 0.38,-0.5 0.6,-0.8l10.42 -13.92c1.78,-2.37 2.95,-3.84 3.95,-6.83 1,-2.98 1.08,-6.4 0.31,-9.46 -0.36,-1.45 -0.56,-1.74 -1.07,-3.01 -0.37,-0.92 -0.95,-1.76 -1.5,-2.59 -0.97,-1.46 -2.67,-3.17 -4.12,-4.14 -3.38,-2.26 -5.98,-3.11 -10.45,-3.11 -1.27,0 -2.58,0.25 -3.58,0.5 -4.87,1.22 -9.14,4.69 -11.26,9.26 -0.78,1.68 -1.59,4.26 -1.59,6.67z"/>
  <circle class="fil1 str1" cx="17.15" cy="16.96" r="11.87"/>
  <g id="_1666513714720">
   <path class="fil2" d="M16.98 21.42l0.31 -0c0.11,0.21 0.51,3.36 0.56,3.85l-1.46 0c0.08,-0.49 0.48,-3.65 0.59,-3.85zm-0 -15.63l0.45 0c1.29,0.04 2.64,0.46 3.89,1.46 0.52,0.41 1.06,0.99 1.2,1.66 0.15,0.72 -0.52,1.42 -1.15,1.62 0,0.43 0,0.86 -0,1.29 -0.01,0.43 -0.01,0.22 0.18,0.49 0.27,0.38 0.46,2.04 -0.73,2.14 0,0.84 -0.5,1.61 -1.07,2.19 -0.15,0.15 -0.5,0.36 -0.58,0.48 0,0.28 -0.03,0.59 0.14,0.8 0.13,0.03 0.28,-0.02 0.43,-0l1.26 0.23c0.46,0.08 1.23,0.19 1.65,0.35 0.95,0.38 1.62,1.04 2,2 0.33,0.84 0.21,2.81 0.21,3.79 -0,0.6 0.11,1.16 -0.52,1.48 -0.09,0.05 -0.27,0.08 -0.47,0.09l-1.43 0 -12.1 0c-1.11,-0.06 -0.91,-1.17 -0.91,-2 -0,-0.35 -0.11,-0.64 0.27,-0.71 0.4,0.06 0.31,0.38 0.31,0.71 -0,1.61 -0.21,1.41 1.54,1.41 0,-0.54 0,-1.07 0,-1.61 0,-0.43 -0.17,-1.26 0.5,-1.01 0.18,0.27 0.09,2.15 0.09,2.62l3.7 -0.02c0.11,-0.79 0.22,-1.58 0.33,-2.37 0.03,-0.24 0.29,-1.57 0.18,-1.74 -0.01,-0.02 -0.3,-0.34 -0.32,-0.35 -0.25,-0.02 -0.5,0.22 -0.86,-0.12l-1.42 -1.98c-0.3,0.02 -1.73,0.29 -1.95,0.4 0.45,0.66 0.21,0.98 -0.19,1.5 -0.43,0.56 -0.81,0.64 -1.45,0.32 -0.3,0.48 0.12,1.38 -0.45,1.46 -0.27,-0.02 -0.28,-0.14 -0.28,-0.39 0,-0.19 -0.01,-0.44 0,-0.63 0.08,-1 0.65,-1.85 1.44,-2.44 0.61,-0.46 1.22,-0.55 1.92,-0.67l1.65 -0.31c0.2,-0.04 0.43,0 0.53,-0.02 0.17,-0.21 0.14,-0.52 0.14,-0.8 -0.07,-0.11 -0.45,-0.35 -0.6,-0.5 -0.57,-0.57 -1.05,-1.33 -1.05,-2.17 -0.88,-0.08 -0.97,-0.89 -0.9,-1.64 0.07,-0.7 0.35,-0.4 0.35,-0.94 -0,-0.42 -0,-0.84 -0,-1.26 -0.06,-0.18 -1.35,-0.62 -1.16,-1.67 0.25,-1.39 2.55,-3.06 5.23,-3.15zm-0.39 14.73c0.35,-0.29 0.75,-0.29 1.1,0 -0.15,0.26 -0.25,0.3 -0.55,0.3 -0.3,-0 -0.39,-0.02 -0.55,-0.3zm7.31 -0.21c-0.34,0.39 -0.56,0.15 -0.78,-0.12 -0.2,-0.24 -0.48,-0.56 -0.06,-0.8 0.26,0.12 0.75,0.65 0.84,0.92zm-13.52 0.01c0.1,-0.28 0.61,-0.88 0.88,-0.93 0.4,0.3 0.08,0.57 -0.11,0.82 -0.25,0.32 -0.4,0.43 -0.78,0.11zm13.76 0.58c0.22,0.36 0.14,2.33 0.14,2.87 0,1.7 0.2,1.49 -1.53,1.49 0,-0.54 0,-1.07 0,-1.61 0,-0.43 0.17,-1.26 -0.5,-1.01 -0.17,0.27 -0.09,2.15 -0.09,2.61l-3.7 0.01 -0.49 -3.56c-0.02,-0.16 -0.11,-0.41 -0.02,-0.54 0.01,-0.02 0.31,-0.37 0.33,-0.38 0.25,-0.02 0.5,0.22 0.86,-0.12l1.42 -1.98c0.3,0.03 1.75,0.28 1.93,0.41 -0.42,0.62 -0.23,0.97 0.2,1.51 0.16,0.2 0.32,0.39 0.59,0.46 0.27,0.07 0.68,0.03 0.86,-0.15zm-6.38 -1.03c0.19,-0.1 0.81,-0.6 1.03,-0.77 0.56,-0.41 0.76,-0.7 1.11,-0.53l-1.22 1.66c-0.21,-0.03 -0.69,-0.27 -0.92,-0.37zm-3.34 -1.31c0.27,-0.14 0.38,-0 0.61,0.17l1.52 1.14c-0.23,0.09 -0.71,0.34 -0.93,0.38l-1.19 -1.68zm2.55 -0.91c0.72,0.02 0.98,-0.09 1.63,-0.28 0,0.5 0.05,0.49 0.24,0.9 -0.1,0.14 -0.95,0.76 -1.1,0.8 0.01,0.06 0.02,0.04 -0.05,0.06 -0.05,0.11 -0.42,0.35 -0.56,0.44l-1.69 -1.29c0.19,-0.41 0.24,-0.41 0.24,-0.9 0.49,0.13 0.72,0.25 1.27,0.28zm2.02 -5.66l0.75 -0.18c0.01,0.34 -0.11,0.98 0.29,1.08 0.41,0.11 0.56,-0.43 1.03,-0.3 0.09,0.21 0.11,0.83 0.04,1.04 -0.12,0.34 -0.56,0.06 -0.76,0.3 -0.07,0.09 -0.12,0.72 -0.18,0.92 -0.39,1.39 -1.74,2.25 -3.13,2.2 -1.06,-0.07 -2.13,-0.63 -2.63,-1.57 -0.48,-0.89 -0.26,-1.42 -0.48,-1.6 -0.23,-0.19 -0.65,0.09 -0.73,-0.33 -0.05,-0.24 -0.04,-0.76 0.05,-0.97 0.47,-0.13 0.6,0.41 1.03,0.3 0.4,-0.1 0.28,-0.74 0.29,-1.08 1.64,0.35 2.73,0.5 4.43,0.18zm1.8 -0.66l-0 0.66 -0.45 0.14 0 -0.55 0.46 -0.25zm-7.28 -0l0.46 0.25 -0 0.56 -0.46 -0.14 0 -0.67zm0.02 -1.27c-0.11,-1.09 0.02,-1.05 1.28,-1.3 1.68,-0.33 3.02,-0.3 4.7,0.03 0.28,0.06 0.8,0.14 1.06,0.24 0.32,0.12 0.25,0.74 0.22,1.03 -0.28,0.01 -1,-0.12 -1.06,0.24 -0.08,0.48 0.61,0.36 0.91,0.36 -0.16,0.36 -1.14,0.63 -1.52,0.71 -1.18,0.27 -2.76,0.28 -3.94,-0.01 -0.38,-0.09 -1.33,-0.35 -1.49,-0.71l4.22 0c0.3,0 1.05,0.12 0.98,-0.36 -0.06,-0.35 -0.93,-0.23 -1.21,-0.23l-4.13 -0zm-0.61 -0.21c-1.83,-0.92 1.29,-3.51 4.27,-3.49 1.56,0.01 3.66,0.84 4.52,2.14 0.41,0.62 0.27,0.95 -0.32,1.34 -0.03,-1.3 -0.13,-1.28 -1.51,-1.58 -1.97,-0.42 -3.53,-0.45 -5.51,-0.02 -1.43,0.32 -1.42,0.43 -1.45,1.6z"/>
   <path class="fil3" d="M12.95 22.64c0.21,-0.09 0.79,-0.04 1.05,-0.04 1.12,0 1.15,-0.03 1.15,0.99 0,0.93 -0.29,0.79 -1.39,0.79 -0.28,0 -0.73,0.06 -0.95,-0.11 -0.24,-0.2 -0.17,-0.59 -0.17,-0.87 -0,-0.35 -0.05,-0.6 0.31,-0.75zm-3.26 -0.27l0 0.78c0.4,0.06 0.31,0.38 0.31,0.71 -0,1.61 -0.21,1.41 1.54,1.41 0,-0.54 0,-1.07 0,-1.61 0,-0.43 -0.17,-1.26 0.5,-1.01 0.18,0.27 0.09,2.15 0.09,2.62l3.7 -0.02c0.11,-0.79 0.22,-1.58 0.33,-2.37 0.03,-0.24 0.29,-1.57 0.18,-1.74 -0.01,-0.02 -0.3,-0.34 -0.32,-0.35 -0.25,-0.02 -0.5,0.22 -0.86,-0.12l-1.42 -1.98c-0.3,0.02 -1.73,0.29 -1.95,0.4 0.45,0.66 0.21,0.98 -0.19,1.5 -0.43,0.56 -0.81,0.64 -1.45,0.32 -0.3,0.48 0.12,1.38 -0.45,1.46z"/>
   <path class="fil3" d="M19.44 22.63c0.18,-0.06 0.83,-0.03 1.07,-0.03 1.09,0 1.12,-0.03 1.12,0.99 0,0.29 0.03,0.62 -0.29,0.75 -0.18,0.07 -0.84,0.04 -1.07,0.04 -1.09,0 -1.15,0.03 -1.15,-0.99 -0,-0.31 -0.03,-0.64 0.32,-0.76zm4.69 -1.72c-0.18,0.18 -0.59,0.23 -0.86,0.15 -0.27,-0.07 -0.43,-0.26 -0.59,-0.46 -0.43,-0.53 -0.62,-0.88 -0.2,-1.51 -0.19,-0.13 -1.63,-0.37 -1.93,-0.41l-1.42 1.98c-0.36,0.33 -0.62,0.09 -0.86,0.12 -0.02,0.01 -0.31,0.36 -0.33,0.38 -0.08,0.14 0,0.38 0.02,0.54l0.49 3.56 3.7 -0.01c0,-0.46 -0.09,-2.34 0.09,-2.61 0.67,-0.25 0.5,0.58 0.5,1.01 0,0.54 0,1.07 0,1.61 1.73,0 1.53,0.21 1.53,-1.49 0,-0.54 0.08,-2.51 -0.14,-2.87z"/>
   <path class="fil4" d="M17.01 17.09c0.13,-0.12 0.37,-0.23 0.54,-0.33 1.72,-1.07 1.43,-3.05 1.43,-4.74 -1.7,0.32 -2.79,0.17 -4.43,-0.18 -0.01,0.34 0.11,0.98 -0.29,1.08 -0.43,0.11 -0.56,-0.43 -1.03,-0.3 -0.09,0.22 -0.1,0.74 -0.05,0.97 0.08,0.41 0.5,0.14 0.73,0.33 0.21,0.18 0,0.71 0.48,1.6 0.5,0.93 1.57,1.5 2.63,1.57z"/>
   <path class="fil3" d="M13.51 10.09l4.13 0c0.28,0 1.16,-0.13 1.21,0.23 0.08,0.49 -0.68,0.36 -0.98,0.36l-4.22 0c0.16,0.36 1.11,0.61 1.49,0.71 1.18,0.29 2.76,0.28 3.94,0.01 0.38,-0.09 1.36,-0.35 1.52,-0.71 -0.3,0 -0.99,0.12 -0.91,-0.36 0.06,-0.36 0.78,-0.23 1.06,-0.24 0.03,-0.29 0.11,-0.91 -0.22,-1.03 -0.25,-0.1 -0.77,-0.18 -1.06,-0.24 -1.68,-0.34 -3.02,-0.36 -4.7,-0.03 -1.26,0.25 -1.39,0.21 -1.28,1.3z"/>
   <path class="fil3" d="M12.91 9.87c0.03,-1.17 0.02,-1.29 1.45,-1.6 1.97,-0.44 3.53,-0.41 5.51,0.02 1.38,0.3 1.49,0.27 1.51,1.58 0.59,-0.39 0.73,-0.72 0.32,-1.34 -0.86,-1.3 -2.96,-2.13 -4.52,-2.14 -2.98,-0.02 -6.11,2.57 -4.27,3.49z"/>
   <path class="fil5" d="M18.98 12.01c0,1.69 0.29,3.67 -1.43,4.74 -0.17,0.11 -0.41,0.22 -0.54,0.33 1.4,0.04 2.75,-0.82 3.13,-2.2 0.06,-0.2 0.11,-0.83 0.18,-0.92 0.19,-0.24 0.64,0.03 0.76,-0.3 0.08,-0.21 0.05,-0.83 -0.04,-1.04 -0.47,-0.13 -0.62,0.4 -1.03,0.3 -0.4,-0.1 -0.27,-0.74 -0.29,-1.08l-0.75 0.18z"/>
   <path class="fil6" d="M16.98 21.42c-0.11,0.2 -0.51,3.36 -0.59,3.85l1.46 0c-0.06,-0.5 -0.45,-3.65 -0.56,-3.85l-0.31 0z"/>
   <path class="fil2" d="M13.25 23.2l1.31 0.02 0.02 0.57 -1.33 -0.02 0.01 -0.57zm-0.29 -0.56c-0.36,0.16 -0.31,0.4 -0.31,0.75 0,0.28 -0.07,0.68 0.17,0.87 0.22,0.18 0.67,0.11 0.95,0.11 1.1,0 1.39,0.14 1.39,-0.79 -0,-1.03 -0.03,-0.99 -1.15,-0.99 -0.26,0 -0.84,-0.05 -1.05,0.04z"/>
   <path class="fil2" d="M19.74 23.2l1.32 0.01c-0.05,0.16 -0.05,0.4 0,0.57l-1.34 0.02 0.02 -0.61zm-0.3 -0.57c-0.35,0.12 -0.32,0.45 -0.32,0.76 0,1.02 0.06,0.99 1.15,0.99 0.23,0 0.89,0.03 1.07,-0.04 0.32,-0.13 0.29,-0.46 0.29,-0.75 -0,-1.02 -0.03,-0.99 -1.12,-0.99 -0.24,0 -0.89,-0.03 -1.07,0.03z"/>
   <path class="fil4" d="M17.69 19.15c0,-0.08 -0.03,-0.08 0.05,-0.06 0.01,-0.1 -0.09,-0.09 -0.2,-0.21 -0.29,-0.33 -0.25,-0.74 -0.25,-1.15 -0.14,-0.01 -0.2,0.02 -0.33,-0.06 -0.55,-0.03 -0.78,-0.15 -1.27,-0.28 -0,0.5 -0.05,0.49 -0.24,0.9l1.69 1.29c0.13,-0.08 0.51,-0.32 0.56,-0.44z"/>
   <path class="fil5" d="M16.96 17.67c0.12,0.08 0.18,0.05 0.33,0.06 0,0.41 -0.05,0.83 0.25,1.15 0.11,0.12 0.21,0.11 0.2,0.21 -0.07,-0.02 -0.05,-0.03 -0.05,0.06 0.07,-0.02 0.06,0.01 0.05,-0.06 0.15,-0.03 1,-0.66 1.1,-0.8 -0.19,-0.41 -0.24,-0.4 -0.24,-0.9 -0.65,0.19 -0.91,0.3 -1.63,0.28z"/>
   <path class="fil3" d="M14.4 18.58l1.19 1.68c0.23,-0.04 0.71,-0.28 0.93,-0.38l-1.52 -1.14c-0.22,-0.17 -0.33,-0.3 -0.61,-0.17z"/>
   <path class="fil3" d="M17.75 19.88c0.23,0.09 0.71,0.34 0.92,0.37l1.22 -1.66c-0.35,-0.17 -0.55,0.12 -1.11,0.53 -0.22,0.17 -0.84,0.67 -1.03,0.77z"/>
   <path class="fil3" d="M19.73 23.8l1.34 -0.02c-0.05,-0.16 -0.05,-0.41 0,-0.57l-1.32 -0.01 -0.02 0.61z"/>
   <polygon class="fil3" points="13.24,23.77 14.57,23.79 14.56,23.22 13.25,23.2 "/>
   <path class="fil7" d="M10.37 20.33c0.37,0.32 0.52,0.22 0.78,-0.11 0.19,-0.24 0.5,-0.52 0.11,-0.82 -0.27,0.04 -0.79,0.65 -0.88,0.93z"/>
   <path class="fil7" d="M23.9 20.32c-0.09,-0.27 -0.58,-0.8 -0.84,-0.92 -0.42,0.24 -0.14,0.56 0.06,0.8 0.22,0.27 0.44,0.51 0.78,0.12z"/>
   <path class="fil6" d="M16.59 20.53c0.16,0.28 0.25,0.3 0.55,0.3 0.29,0 0.4,-0.04 0.55,-0.3 -0.35,-0.29 -0.75,-0.29 -1.1,0z"/>
   <polygon class="fil8" points="13.5,12.02 13.96,12.16 13.96,11.6 13.5,11.35 "/>
   <polygon class="fil8" points="20.32,11.61 20.32,12.16 20.78,12.01 20.78,11.36 "/>
  </g>
 </g>
</svg>
